<?xml version="1.0" standalone="no"?>
<!DOCTYPE svg PUBLIC "-//W3C//DTD SVG 20010904//EN"
 "http://www.w3.org/TR/2001/REC-SVG-20010904/DTD/svg10.dtd">
<svg version="1.0" xmlns="http://www.w3.org/2000/svg"
 width="512.000000pt" height="512.000000pt" viewBox="0 0 512.000000 512.000000"
 preserveAspectRatio="xMidYMid meet">
<metadata>
Created by potrace 1.14, written by Peter Selinger 2001-2017
</metadata>
<g transform="translate(0.000000,512.000000) scale(0.100000,-0.100000)"
fill="#000000" stroke="none">
<path d="M1357 4914 c4 -10 2 -15 -4 -11 -5 3 -10 0 -10 -8 0 -8 4 -12 8 -10
8 6 6 -11 -6 -37 -4 -10 -4 -25 -1 -34 3 -8 2 -12 -4 -9 -6 3 -10 1 -10 -5 0
-6 -5 -8 -12 -4 -9 5 -9 2 1 -9 7 -9 11 -17 7 -17 -4 0 2 -12 11 -27 10 -15
13 -24 6 -20 -6 4 -14 3 -18 -3 -3 -5 1 -10 9 -10 9 0 16 -4 16 -10 0 -5 -7
-6 -17 -3 -10 4 -14 2 -10 -4 4 -6 1 -14 -5 -16 -10 -4 -10 -6 0 -6 7 -1 12
-14 12 -33 0 -25 -3 -29 -10 -18 -6 9 -10 10 -10 3 0 -6 4 -15 10 -18 5 -3 15
-15 21 -27 8 -15 8 -19 0 -14 -6 4 -11 3 -11 -3 0 -6 -8 -8 -17 -5 -17 5 -17
5 0 -6 21 -13 23 -34 2 -27 -8 4 -17 2 -20 -4 -4 -5 -3 -9 2 -8 22 4 33 -3 33
-21 0 -14 -5 -18 -17 -14 -17 5 -17 5 0 -6 16 -11 25 -46 9 -36 -5 3 -9 -2 -9
-11 0 -12 5 -10 20 8 11 13 18 17 15 9 -3 -8 2 -24 11 -35 15 -18 15 -19 -1
-6 -21 16 -44 5 -29 -13 6 -7 9 -15 6 -18 -3 -2 2 -5 10 -5 12 0 12 3 2 16
-10 14 -10 14 3 4 14 -11 21 -13 36 -13 4 0 1 -6 -6 -14 -9 -12 -8 -15 9 -13
12 1 21 8 21 17 1 10 5 7 13 -8 10 -17 15 -20 25 -10 7 7 12 8 12 2 0 -5 -13
-18 -28 -29 -21 -15 -24 -15 -13 -2 7 9 12 17 10 18 -31 6 -39 6 -40 -2 -1 -5
-2 -13 -3 -18 0 -5 -5 -13 -10 -18 -5 -4 -6 -3 -3 3 10 18 -41 14 -55 -4 -10
-13 -10 -14 0 -8 7 4 21 5 31 1 21 -6 25 -40 8 -63 -7 -8 -1 -8 19 3 27 14 50
11 27 -3 -8 -5 -9 -13 -3 -22 8 -13 10 -13 10 1 0 8 15 26 33 39 18 14 26 16
18 7 -10 -13 -10 -17 -1 -17 9 0 9 -4 2 -12 -8 -10 -5 -13 13 -13 20 0 22 3
12 20 -8 17 -8 18 4 9 8 -5 24 -9 37 -8 14 1 22 -4 22 -15 0 -12 2 -13 9 -3 4
7 14 12 22 10 8 -2 13 3 11 10 -1 9 5 8 22 -4 15 -9 30 -12 38 -8 22 14 38 13
38 -1 0 -8 -8 -12 -20 -10 -11 2 -20 0 -20 -6 0 -13 40 -5 50 10 5 9 10 10 14
2 4 -6 5 -15 1 -20 -3 -5 -1 -12 4 -15 11 -7 7 38 -5 57 -5 7 -1 5 8 -5 10
-11 19 -14 23 -8 8 13 25 13 25 0 0 -6 -3 -9 -7 -8 -8 3 -13 -5 -13 -22 0 -5
5 -10 10 -10 6 0 9 3 9 8 -3 19 2 23 16 12 8 -7 12 -17 8 -24 -3 -6 -2 -7 3
-3 5 5 10 13 10 18 1 5 2 13 3 18 1 12 41 2 41 -10 0 -5 10 -7 23 -5 13 2 21
10 21 20 -1 9 2 16 7 16 5 0 9 -6 9 -14 0 -8 8 -13 18 -12 9 2 21 -2 25 -8 6
-7 7 -6 4 4 -2 8 -9 15 -14 15 -6 0 -14 2 -17 6 -8 8 77 5 91 -4 6 -4 15 -3
18 3 5 8 11 8 20 0 10 -8 14 -8 17 2 3 8 6 7 10 -3 5 -13 -1 -15 -33 -14 -21
1 -39 -2 -39 -7 0 -5 12 -6 26 -4 21 4 25 2 20 -12 -5 -15 -5 -15 6 -1 15 18
24 20 55 8 17 -6 21 -5 17 6 -3 7 -11 13 -17 11 -7 -1 -9 -1 -4 1 4 3 4 9 1
15 -3 5 3 4 15 -4 12 -7 21 -16 21 -20 0 -5 9 -8 21 -8 11 0 18 4 15 8 -2 4 4
8 14 8 10 0 16 -4 13 -9 -3 -5 3 -7 13 -5 11 2 20 -4 22 -16 3 -11 0 -16 -7
-11 -6 3 -9 9 -7 13 2 4 -6 8 -19 8 -17 1 -23 -3 -22 -17 1 -12 5 -15 11 -9
12 12 29 13 22 2 -2 -4 6 -8 19 -8 13 0 21 4 19 8 -3 4 2 8 11 8 9 0 14 -4 11
-9 -11 -17 18 -28 41 -16 18 9 20 14 10 25 -10 12 -9 12 6 1 13 -11 15 -17 6
-27 -8 -10 -9 -18 0 -27 6 -8 9 -17 6 -20 -3 -4 -2 -4 3 -1 4 3 7 10 7 15 0 5
5 8 10 7 6 -2 9 -6 8 -9 -4 -11 72 -4 77 8 3 7 10 2 17 -12 6 -14 8 -23 4 -21
-4 3 -12 -4 -19 -15 -7 -11 -8 -19 -2 -19 5 0 10 5 10 10 0 6 9 10 20 10 22 0
26 10 9 27 -14 14 -2 34 18 31 9 -2 18 3 20 10 3 7 -1 10 -10 6 -18 -7 -32 12
-16 22 7 4 20 -2 30 -14 12 -16 19 -18 23 -10 3 7 3 2 0 -12 -5 -24 -4 -24 10
-6 9 11 16 14 16 7 0 -7 4 -9 10 -6 6 3 7 -1 4 -10 -5 -12 -2 -14 12 -8 14 5
13 1 -6 -18 -15 -13 -19 -19 -10 -13 32 23 50 24 50 4 0 -18 -10 -25 -32 -21
-5 0 -9 -4 -9 -9 -5 -35 -2 -45 11 -45 22 0 63 32 52 39 -10 6 -9 47 2 95 7
30 12 35 21 22 3 -6 1 -11 -5 -11 -6 0 -8 -5 -5 -10 5 -8 12 -7 23 2 12 10 14
10 8 1 -4 -7 -2 -13 3 -13 6 0 10 -3 9 -7 -1 -5 4 -19 11 -33 l12 -25 -20 25
c-11 14 -21 30 -21 35 0 6 -4 3 -10 -5 -5 -8 -6 -17 -2 -20 4 -3 15 -15 25
-27 14 -16 15 -23 6 -29 -8 -5 -10 -3 -5 7 4 8 0 5 -10 -6 -14 -17 -16 -17
-11 -2 4 9 3 17 -2 17 -16 0 -20 -14 -8 -28 10 -13 9 -14 -2 -7 -10 5 -12 4
-7 -4 4 -6 4 -11 -1 -10 -20 3 -33 -2 -30 -12 1 -6 -6 -13 -16 -14 -10 -2 -14
1 -11 7 4 7 2 8 -5 4 -6 -4 -9 -12 -6 -17 4 -5 2 -9 -4 -9 -15 0 -23 18 -9 22
9 3 9 6 0 12 -7 4 -12 2 -12 -3 0 -6 -5 -11 -11 -11 -8 0 -7 5 2 16 7 9 14 25
16 35 2 16 0 18 -16 10 -10 -6 -22 -7 -26 -3 -4 4 -5 0 -3 -8 3 -8 11 -14 17
-12 9 2 9 -3 1 -17 -6 -13 -6 -22 0 -26 5 -3 8 -11 6 -18 -1 -7 -1 -9 1 -4 3
4 9 7 14 7 6 0 8 -4 5 -8 -3 -5 1 -9 9 -9 8 0 15 5 15 11 0 6 5 4 10 -4 9 -13
10 -13 10 0 0 13 1 13 11 0 8 -13 9 -12 7 4 -2 10 3 21 11 24 9 3 11 0 6 -9
-5 -8 -4 -11 1 -6 5 5 10 13 10 18 3 22 5 23 15 9 9 -13 10 -13 7 0 -1 8 13
30 30 49 25 26 30 36 20 43 -10 7 -10 9 2 5 8 -2 14 -12 14 -21 -2 -22 1 -20
22 12 15 23 15 25 1 13 -9 -7 -17 -9 -17 -3 0 17 27 21 47 7 17 -12 19 -11 20
8 1 12 -3 25 -10 30 -8 6 -7 7 4 4 9 -3 22 0 28 6 6 6 11 7 11 1 0 -5 5 -2 10
6 7 11 10 11 10 2 0 -7 4 -10 10 -7 6 4 7 -1 4 -12 -4 -11 -3 -14 3 -7 4 6 17
10 29 9 24 -2 26 23 4 52 -14 17 -14 17 6 0 18 -15 23 -15 32 -4 7 8 9 17 5
20 -3 4 -1 7 5 7 7 0 10 -10 8 -22 -1 -13 -8 -23 -14 -23 -7 0 -12 -3 -12 -7
0 -5 0 -11 0 -14 0 -4 6 -1 13 5 8 6 18 7 22 3 5 -4 5 -1 1 6 -4 6 -2 12 4 12
6 0 9 4 5 9 -3 5 -1 12 4 16 6 3 8 -3 6 -15 -2 -11 1 -23 7 -26 6 -4 8 -3 4 4
-9 15 15 21 39 9 11 -5 17 -6 13 -2 -10 10 10 45 25 45 8 0 8 -3 -2 -9 -11 -7
-11 -9 0 -14 10 -4 10 -6 2 -6 -7 -1 -13 -5 -13 -11 0 -19 17 -10 28 15 10 21
16 24 44 18 29 -6 32 -5 20 9 -9 11 -10 18 -2 23 6 4 9 1 8 -5 -2 -6 11 -23
29 -37 31 -24 32 -24 28 -4 -2 11 1 24 7 27 6 4 8 3 5 -3 -4 -6 0 -16 8 -23
13 -11 14 -10 9 3 -4 12 -1 14 18 10 21 -6 22 -5 8 13 -14 18 -14 18 5 2 15
-13 24 -14 39 -6 14 8 17 7 12 -1 -4 -6 -2 -11 4 -11 6 0 9 -4 6 -8 -3 -5 1
-9 9 -9 10 0 11 5 5 17 -6 12 -5 17 5 17 8 0 12 -4 9 -9 -3 -4 0 -8 6 -8 6 0
8 -5 4 -11 -5 -8 -1 -8 14 0 24 13 65 15 58 2 -3 -4 8 -8 25 -7 16 1 34 8 39
16 6 9 10 10 10 3 0 -7 11 -10 28 -9 15 2 30 -2 34 -8 5 -7 8 -6 8 4 0 13 1
13 10 0 6 -9 10 -11 10 -3 0 7 6 10 14 7 8 -3 17 0 22 7 4 7 3 10 -4 5 -6 -3
-13 -2 -17 3 -3 6 4 8 17 6 13 -3 31 -2 41 1 15 5 16 8 5 22 -12 15 -11 16 4
3 10 -7 15 -17 12 -22 -3 -5 0 -9 6 -9 6 0 8 -5 4 -12 -6 -10 -4 -10 7 -3 8 6
26 10 41 9 15 0 25 3 22 7 -3 5 2 19 10 31 9 12 16 18 16 12 0 -5 -5 -15 -12
-22 -9 -9 -8 -12 8 -12 16 0 16 -2 4 -10 -12 -7 -10 -9 7 -7 17 1 19 4 11 14
-6 8 -8 17 -4 20 4 4 12 1 17 -7 9 -13 10 -12 6 2 -3 9 -1 19 6 22 9 3 9 5 0
5 -7 1 -13 7 -13 15 0 8 6 17 13 19 9 4 9 6 -1 6 -7 1 -10 6 -7 11 3 6 -1 10
-11 10 -13 0 -14 -3 -5 -14 9 -11 9 -16 0 -22 -8 -4 -9 -3 -5 5 5 7 -5 17 -28
26 -40 17 -51 30 -35 41 7 4 9 3 6 -3 -4 -6 5 -15 19 -22 26 -11 49 -7 39 9
-8 13 22 19 35 7 10 -9 11 -9 4 3 -10 19 -13 50 -4 55 4 2 6 14 5 27 -1 13 3
27 9 31 7 6 6 7 -4 4 -8 -2 -14 -10 -12 -16 1 -7 -2 -10 -8 -6 -13 8 -13 -8 1
-22 7 -7 6 -12 -5 -16 -8 -3 -18 -1 -22 5 -5 7 -2 8 6 3 9 -5 10 -2 6 13 -4
11 -2 23 4 27 6 3 8 11 5 16 -6 8 16 14 38 10 5 -1 6 3 2 9 -3 6 -10 8 -15 5
-5 -3 -14 5 -21 17 -11 21 -11 22 4 10 9 -8 22 -12 29 -9 8 4 7 6 -4 6 -13 1
-16 8 -13 31 3 28 2 29 -18 19 -21 -11 -21 -11 -6 7 26 31 34 49 18 38 -20
-12 -40 -14 -33 -3 3 5 9 7 13 5 4 -3 15 8 25 25 10 16 22 26 28 23 7 -5 8 -2
3 6 -6 10 -12 8 -25 -8 -23 -28 -32 -18 -14 16 7 15 11 35 8 45 -5 16 5 22 29
18 5 -1 6 3 2 9 -3 6 -11 8 -16 5 -16 -11 -40 23 -35 49 2 14 -1 27 -7 29 -6
2 -4 6 5 9 13 5 15 0 12 -27 -2 -21 2 -35 11 -38 13 -6 15 9 2 29 -3 6 -3 14
0 18 18 18 9 33 -18 31 -16 -1 -26 1 -23 6 3 5 9 7 13 5 4 -3 13 0 21 5 13 9
13 10 0 8 -8 -1 -22 -1 -30 0 -13 1 -13 3 0 12 13 9 12 10 -2 5 -10 -3 -20 -1
-23 4 -7 11 -35 2 -35 -12 0 -7 5 -6 14 1 10 9 15 8 19 -3 4 -10 1 -13 -9 -9
-8 3 -14 -1 -14 -8 0 -9 -4 -7 -11 4 -10 18 -12 18 -32 0 -18 -15 -19 -15 -9
-1 10 13 11 21 3 35 -10 16 -11 16 -9 1 2 -9 -1 -16 -7 -15 -5 1 -9 8 -9 14 1
7 -2 10 -8 7 -5 -3 -6 -14 -3 -25 5 -13 2 -19 -7 -17 -7 2 -12 -3 -10 -10 1
-8 -2 -11 -8 -7 -6 3 -8 10 -5 15 3 5 -5 9 -17 8 -38 -1 -49 2 -44 11 7 10
-20 9 -30 -2 -4 -4 -13 1 -21 11 -12 15 -13 14 -2 -8 9 -20 9 -23 -1 -13 -7 6
-19 9 -28 6 -11 -5 -13 -3 -7 7 5 9 4 11 -4 6 -6 -4 -9 -11 -6 -15 2 -5 -2
-17 -10 -27 -8 -10 -15 -14 -15 -9 0 6 5 16 12 23 9 9 9 12 -1 12 -7 0 -9 5
-5 12 4 7 3 8 -5 4 -6 -4 -9 -11 -6 -16 3 -4 -2 -13 -9 -20 -12 -9 -17 -6 -28
14 l-13 26 -14 -23 c-13 -20 -13 -21 2 -8 10 7 17 9 17 3 0 -15 -25 -21 -41
-10 -11 7 -11 11 -1 15 6 2 12 10 12 16 -1 7 -10 1 -21 -12 -15 -18 -23 -21
-31 -13 -9 9 -9 12 2 12 7 0 11 3 7 6 -3 3 -11 3 -17 -1 -8 -5 -8 -10 0 -20 8
-10 8 -15 -1 -21 -7 -4 -9 -3 -6 3 4 6 0 14 -9 17 -9 3 -12 11 -8 18 4 7 4 10
-1 6 -4 -4 -15 -2 -24 5 -14 10 -14 10 -4 -4 7 -9 9 -20 5 -24 -4 -5 -1 -5 7
0 9 5 12 4 7 -3 -3 -5 0 -13 6 -15 10 -4 10 -6 1 -6 -7 -1 -20 10 -28 23 -9
13 -24 27 -33 30 -13 5 -13 3 2 -9 11 -8 16 -15 12 -15 -5 0 -2 -8 5 -17 13
-17 13 -17 -5 -3 -18 14 -19 13 -13 -5 7 -19 6 -19 -7 -2 -13 17 -52 25 -41 8
3 -5 -9 -3 -26 6 -30 15 -33 15 -46 -2 -7 -11 -13 -13 -13 -6 0 7 -4 10 -9 6
-6 -3 -14 3 -20 12 -9 16 -10 16 -11 2 0 -9 -7 -20 -16 -23 -24 -9 -28 -7 -14
9 7 9 10 18 6 22 -3 3 -6 1 -6 -5 0 -7 -9 -12 -20 -12 -11 0 -20 -5 -20 -11 0
-5 4 -8 8 -5 5 3 9 -1 9 -9 0 -13 -4 -12 -19 2 -15 13 -23 14 -43 5 -21 -10
-25 -9 -25 4 0 8 -5 12 -10 9 -6 -4 -8 -10 -5 -15 3 -5 0 -12 -6 -16 -8 -4 -9
-3 -5 4 4 7 2 12 -4 12 -6 0 -8 5 -5 11 6 8 -17 -1 -45 -19 -2 -2 2 -8 10 -13
13 -9 12 -10 -2 -6 -9 3 -19 3 -21 -1 -2 -4 -2 0 0 8 2 8 1 11 -3 7 -4 -4 -14
-1 -22 6 -13 10 -14 9 -3 -10 7 -15 8 -23 1 -23 -5 0 -10 4 -10 10 0 5 -7 7
-15 4 -14 -6 -13 -8 2 -20 14 -11 14 -14 3 -12 -8 2 -20 12 -27 23 -7 12 -12
15 -13 6 0 -7 -6 -11 -13 -8 -8 3 -14 -1 -14 -8 0 -10 5 -11 17 -5 12 6 17 5
17 -5 0 -7 -6 -11 -14 -8 -7 3 -13 0 -13 -6 0 -6 -5 -11 -11 -11 -5 0 -7 5 -4
10 3 6 1 10 -5 10 -6 0 -8 5 -5 10 3 6 1 10 -5 10 -6 0 -8 -12 -5 -31 5 -26 3
-28 -9 -17 -8 7 -11 18 -8 23 3 6 1 6 -4 2 -5 -5 -10 -13 -10 -18 -1 -5 -2
-12 -3 -16 0 -4 -8 2 -17 13 -15 18 -15 18 -5 -3 14 -29 14 -28 -10 -30 -18
-2 -19 0 -7 15 11 15 11 15 -3 5 -9 -7 -18 -11 -20 -8 -3 2 -6 -6 -6 -18 -2
-18 0 -19 8 -7 9 13 10 13 6 0 -2 -8 -10 -14 -17 -12 -8 2 -10 -4 -6 -15 5
-16 4 -15 -9 1 -10 13 -15 15 -15 6 0 -9 -5 -7 -14 6 -11 14 -11 21 -3 26 8 5
8 8 1 8 -18 0 -24 -12 -13 -26 7 -8 7 -14 -1 -19 -6 -4 -10 -3 -9 2 3 20 -2
27 -11 13 -7 -11 -10 -11 -10 -2 0 7 -5 10 -12 6 -7 -4 -8 -3 -4 5 4 6 12 9
17 6 5 -4 9 1 9 10 0 9 -4 14 -9 10 -5 -3 -17 2 -25 11 -9 8 -16 11 -16 6 0
-6 -8 -13 -17 -17 -15 -5 -16 -4 -5 6 6 7 12 17 12 23 0 6 -5 5 -11 -1 -6 -6
-18 -9 -25 -6 -8 3 -14 -1 -14 -8 0 -7 -2 -10 -5 -7 -3 3 -3 13 1 22 5 13 9
14 20 5 10 -8 14 -8 14 0 0 6 -5 11 -11 11 -5 0 -7 6 -3 13 6 10 4 10 -7 0
-18 -18 -32 -16 -25 3 3 8 2 12 -4 9 -6 -3 -10 -1 -10 6 0 7 -3 9 -7 6 -3 -4
-12 -2 -18 3 -9 7 -16 6 -25 -5 -14 -17 -30 -20 -30 -4 0 5 4 8 8 5 5 -3 9 2
9 11 0 12 -5 11 -19 -7 -20 -25 -24 -19 -7 13 12 22 11 22 -9 4 -17 -16 -22
-16 -33 -4 -11 12 -16 11 -32 -7 -10 -12 -16 -16 -13 -9 9 17 -15 28 -25 12
-5 -8 -9 -9 -9 -3 0 5 6 16 13 24 6 8 8 11 3 7 -5 -4 -15 -2 -22 4 -8 7 -14 6
-20 -2 -4 -8 -3 -9 4 -5 7 4 12 4 12 -1 0 -4 -12 -13 -26 -20 -22 -10 -24 -10
-13 3 17 21 5 28 -51 28 -34 1 -49 -3 -46 -10 5 -13 -7 -12 -38 1 -12 5 -21 3
-27 -6 -8 -11 -9 -10 -7 5 2 10 -3 21 -10 23 -7 3 -10 -1 -7 -9 4 -9 -4 -13
-24 -13 -16 -1 -27 3 -25 7 3 4 0 8 -5 8 -6 0 -11 5 -11 11 0 5 4 8 9 4 5 -3
12 -1 15 4 4 5 -1 8 -10 7 -9 -1 -21 -10 -26 -20 -7 -13 -13 -14 -23 -6 -7 6
-19 9 -26 8 -9 -2 -13 5 -12 17 1 19 1 19 -12 1 -8 -10 -16 -24 -18 -30 -3 -7
-10 -6 -21 4 -22 17 -46 22 -46 9 0 -6 7 -9 16 -7 10 2 19 -1 20 -7 2 -6 -13
-10 -35 -10 -27 0 -37 3 -34 12 3 7 0 13 -6 13 -6 0 -11 -4 -11 -9 0 -5 -7
-12 -16 -15 -14 -5 -15 -4 -4 9 12 15 4 21 -24 16 -4 -1 -15 4 -24 11 -12 10
-14 10 -8 1 5 -9 1 -13 -11 -13 -15 0 -16 -2 -3 -10 8 -5 11 -10 5 -10 -5 0
-17 4 -25 10 -9 6 -20 5 -29 -3 -10 -8 -13 -8 -8 -1 9 15 -40 47 -56 37 -22
-14 -49 -14 -41 -1 6 10 4 10 -8 0 -14 -11 -18 -10 -26 4 -8 15 -9 15 -15 -1
-4 -9 -11 -13 -17 -10 -5 3 -10 1 -10 -4 0 -6 -4 -11 -10 -11 -5 0 -7 6 -4 14
3 8 1 17 -5 21 -7 4 -8 0 -4 -11z m55 -21 c-6 -3 -10 -9 -6 -14 3 -5 0 -9 -5
-9 -6 0 -11 4 -11 8 0 12 23 32 29 25 3 -3 0 -8 -7 -10z m118 2 c6 -8 10 -20
7 -27 -4 -9 -6 -8 -6 2 -1 9 -10 16 -22 17 -17 2 -18 -1 -9 -13 20 -23 5 -16
-16 8 -10 12 -14 18 -7 15 6 -4 14 -3 18 3 9 14 20 13 35 -5z m-69 -12 c12
-16 12 -17 -2 -6 -9 7 -20 9 -24 5 -5 -4 -5 -1 -1 6 9 16 11 15 27 -5z m2183
0 c4 -10 4 -14 0 -10 -4 4 -12 0 -18 -8 -8 -11 -15 -12 -26 -4 -13 9 -13 10 2
6 10 -4 18 1 21 14 6 24 13 24 21 2z m-1986 -1 c14 12 14 11 1 -9 -9 -16 -16
-19 -21 -10 -4 7 -7 17 -7 22 0 6 3 4 6 -3 4 -10 8 -10 21 0z m202 -8 c0 4 8
2 18 -3 13 -7 23 -6 31 2 10 9 11 8 6 -5 -8 -20 -14 -22 -35 -8 -9 5 -19 5
-27 -2 -7 -6 -13 -9 -14 -7 -8 38 -7 40 7 28 8 -6 14 -8 14 -5z m1718 -4 c-7
-10 -14 -17 -17 -15 -4 4 18 35 25 35 2 0 -1 -9 -8 -20z m-1988 -10 c0 -5 -2
-10 -4 -10 -3 0 -8 5 -11 10 -3 6 -1 10 4 10 6 0 11 -4 11 -10z m537 -8 c-7
-10 -13 -10 -15 -3 -2 6 -9 8 -14 5 -6 -4 -8 -3 -5 2 3 5 15 10 26 10 16 0 18
-3 8 -14z m43 14 c0 -2 -8 -10 -17 -17 -16 -13 -17 -12 -4 4 13 16 21 21 21
13z m1040 -6 c0 -5 -4 -10 -10 -10 -5 0 -10 5 -10 10 0 6 5 10 10 10 6 0 10
-4 10 -10z m-906 -38 c3 -5 -1 -9 -9 -9 -8 0 -12 4 -9 9 3 4 7 8 9 8 2 0 6 -4
9 -8z m113 -24 c-13 -8 -39 10 -31 23 3 5 14 3 24 -3 13 -9 16 -14 7 -20z
m-1062 -38 c3 -6 -1 -7 -9 -4 -18 7 -21 14 -7 14 6 0 13 -4 16 -10z m2550 0
c3 -5 1 -10 -4 -10 -6 0 -11 5 -11 10 0 6 2 10 4 10 3 0 8 -4 11 -10z m-1368
-26 c-3 -3 -12 -4 -19 -1 -8 3 -5 6 6 6 11 1 17 -2 13 -5z m1371 -12 c2 -7 -1
-12 -8 -12 -6 0 -8 5 -4 12 5 8 2 9 -10 5 -11 -4 -15 -3 -11 4 8 12 27 7 33
-9z m-2549 -76 c-3 -3 -11 5 -18 17 -13 21 -12 21 5 5 10 -10 16 -20 13 -22z
m2 -53 c13 -17 13 -17 -6 -3 -11 8 -22 16 -24 17 -2 2 0 3 6 3 6 0 17 -8 24
-17z m2549 -33 c0 -5 -5 -10 -11 -10 -5 0 -7 5 -4 10 3 6 8 10 11 10 2 0 4 -4
4 -10z m-2560 -20 c0 -5 -2 -10 -4 -10 -3 0 -8 5 -11 10 -3 6 -1 10 4 10 6 0
11 -4 11 -10z m5 -38 c-3 -3 -11 0 -18 7 -9 10 -8 11 6 5 10 -3 15 -9 12 -12z
m2538 -118 c-2 -7 -11 -15 -19 -18 -9 -3 -12 -11 -8 -18 5 -10 3 -9 -7 0 -12
11 -11 15 4 23 9 6 15 14 13 18 -3 4 1 8 8 8 8 0 12 -6 9 -13z m-2409 -29 c-4
-8 -8 -15 -10 -15 -2 0 -4 7 -4 15 0 8 4 15 10 15 5 0 7 -7 4 -15z m119 -15
c4 0 5 5 1 12 -5 7 -3 8 7 2 22 -13 62 -12 86 3 35 20 42 15 9 -6 -17 -11 -33
-18 -38 -15 -4 3 -8 -1 -9 -8 0 -10 -2 -10 -6 0 -8 20 -25 14 -18 -7 3 -11 1
-22 -4 -26 -7 -4 -8 1 -4 11 4 12 3 15 -5 10 -8 -4 -10 -2 -6 8 4 10 0 13 -13
10 -12 -3 -26 4 -38 17 l-20 23 25 -17 c13 -9 28 -17 33 -17z m222 20 c3 -5 1
-10 -4 -10 -6 0 -11 5 -11 10 0 6 2 10 4 10 3 0 8 -4 11 -10z m105 -32 c0 -4
-7 -8 -16 -8 -9 0 -12 -5 -8 -12 5 -7 3 -8 -6 -3 -10 6 -10 11 3 20 9 7 14 15
10 19 -3 3 -16 -2 -27 -11 -21 -18 -21 -18 -3 3 9 11 14 25 10 30 -5 5 2 0 15
-10 12 -11 22 -23 22 -28z m30 32 c-8 -5 -19 -10 -25 -10 -5 0 -3 5 5 10 8 5
20 10 25 10 6 0 3 -5 -5 -10z m82 -14 c10 1 21 -3 25 -8 3 -7 1 -8 -5 -4 -16
10 -15 -7 1 -23 10 -10 9 -11 -5 -6 -10 4 -18 13 -18 21 0 8 -5 13 -12 12 -6
-2 -13 6 -15 17 -2 16 -1 16 5 4 4 -9 15 -15 24 -13z m1242 9 c-5 -11 -2 -14
12 -9 16 6 17 5 7 -7 -15 -15 -40 2 -29 20 10 16 16 13 10 -4z m62 3 c4 -7 3
-8 -4 -4 -7 4 -12 2 -12 -5 0 -7 -3 -10 -6 -6 -6 5 3 27 11 27 2 0 7 -5 11
-12z m39 2 c-3 -5 -12 -10 -18 -10 -7 0 -6 4 3 10 19 12 23 12 15 0z m81 -9
c-17 -11 -33 -18 -38 -15 -4 3 -9 -5 -9 -18 l-2 -23 -4 23 c-2 12 -9 20 -14
17 -5 -4 -9 -1 -9 5 0 6 11 8 24 6 14 -2 33 2 43 9 10 8 23 14 28 15 6 0 -3
-9 -19 -19z m77 2 c-6 -15 -4 -16 8 -6 12 10 15 8 16 -10 2 -17 0 -19 -7 -7
-5 8 -10 11 -10 6 0 -6 -5 -5 -11 1 -6 6 -8 16 -5 22 11 17 16 13 9 -6z m127
-17 c0 -4 -6 -3 -14 3 -12 10 -17 8 -25 -7 -6 -11 -7 -22 -3 -26 3 -4 -2 -4
-13 0 -11 5 -14 9 -7 12 7 2 12 8 12 13 0 6 -7 6 -18 0 -14 -7 -19 -6 -19 4 0
7 7 11 15 7 11 -4 13 -2 7 9 -8 12 -6 12 8 0 16 -12 21 -9 18 12 -1 4 8 2 19
-5 11 -7 20 -17 20 -22z m34 25 c3 -5 -1 -11 -9 -14 -9 -4 -12 -1 -8 9 6 16
10 17 17 5z m59 -8 c-4 -9 0 -11 13 -7 16 6 17 5 6 -7 -11 -12 -15 -11 -26 3
-12 17 -14 17 -30 0 -9 -10 -14 -21 -11 -24 3 -2 -2 -5 -10 -5 -21 0 -19 4 12
31 29 25 54 30 46 9z m-2018 -12 c-3 -6 -11 -9 -16 -6 -12 8 -12 -18 1 -31 7
-7 6 -11 -5 -11 -8 0 -13 3 -10 5 3 3 -3 11 -13 19 -9 8 -12 12 -6 9 7 -3 15
1 18 10 3 8 10 12 16 9 5 -3 10 -1 10 6 0 7 3 10 6 6 3 -3 3 -11 -1 -16z m125
4 c-7 -8 -16 -13 -20 -10 -5 3 -11 0 -13 -5 -3 -6 -4 -5 -3 2 2 7 8 13 14 13
5 0 14 3 18 8 13 13 17 7 4 -8z m120 0 c-7 -8 -16 -13 -20 -10 -5 3 -11 -2
-13 -10 -4 -11 -4 -10 -3 2 1 10 6 18 13 18 6 0 15 3 19 8 13 13 17 7 4 -8z
m105 -3 c-3 -3 -11 0 -18 7 -9 10 -8 11 6 5 10 -3 15 -9 12 -12z m1092 11 c-4
-3 1 -12 11 -20 15 -13 15 -13 -6 -3 -19 9 -23 30 -5 30 4 0 3 -3 0 -7z m318
-12 c-3 -6 -11 -9 -16 -6 -5 4 -9 2 -9 -4 0 -5 5 -12 10 -14 6 -3 5 -4 -2 -3
-7 2 -13 9 -13 17 0 8 6 13 13 12 6 -2 12 2 12 9 0 6 3 9 6 5 3 -3 3 -11 -1
-16z m-2010 -11 c-10 -11 -20 -18 -23 -16 -5 6 21 35 32 36 5 0 1 -9 -9 -20z
m55 15 c0 -2 -10 -10 -22 -16 -21 -11 -22 -11 -9 4 13 16 31 23 31 12z m264
-21 c4 -10 2 -12 -6 -8 -7 5 -9 2 -6 -8 4 -8 0 -15 -7 -15 -10 0 -11 5 -4 18
6 11 5 20 -1 24 -5 3 -10 -2 -10 -11 0 -10 -3 -15 -6 -11 -4 3 -4 13 -1 21 7
18 33 11 41 -10z m1336 21 c0 -2 -10 -9 -22 -15 -22 -11 -22 -10 -4 4 21 17
26 19 26 11z m94 -5 c26 -9 36 -30 15 -30 -5 0 -7 5 -4 10 3 6 -3 10 -14 10
-11 0 -23 5 -26 10 -8 12 -3 13 29 0z m-1039 -12 c5 4 5 1 1 -6 -6 -10 -11
-10 -22 -1 -8 6 -14 14 -14 16 0 3 6 0 13 -6 8 -6 18 -7 22 -3z m1169 3 c4 -5
-4 -7 -16 -3 -14 3 -19 2 -14 -6 4 -7 2 -12 -3 -12 -12 0 -14 13 -4 23 9 10
31 9 37 -2z m-1799 -11 c3 -6 -1 -7 -9 -4 -18 7 -21 14 -7 14 6 0 13 -4 16
-10z m435 6 c0 -3 -4 -8 -10 -11 -5 -3 -10 -1 -10 4 0 6 5 11 10 11 6 0 10 -2
10 -4z m102 -13 c-6 -3 -9 -10 -6 -15 4 -7 2 -8 -5 -4 -9 6 -9 11 0 22 6 8 15
12 18 8 3 -4 0 -9 -7 -11z m923 -1 c-3 -3 -11 0 -18 7 -9 10 -8 11 6 5 10 -3
15 -9 12 -12z m133 6 c-2 -6 -10 -13 -16 -14 -7 -1 -8 0 -2 3 5 2 8 9 4 14 -3
5 0 9 6 9 7 0 10 -5 8 -12z m296 -4 c3 -8 2 -12 -4 -9 -6 3 -10 10 -10 16 0
14 7 11 14 -7z m71 5 c11 -16 1 -19 -13 -3 -7 8 -8 14 -3 14 5 0 13 -5 16 -11z
m219 3 c3 -5 -1 -9 -9 -9 -8 0 -15 4 -15 9 0 4 4 8 9 8 6 0 12 -4 15 -8z m61
-2 c3 -6 -1 -7 -9 -4 -18 7 -21 14 -7 14 6 0 13 -4 16 -10z m-1670 -10 c-3 -5
-1 -10 6 -10 7 0 10 -3 6 -6 -9 -9 -28 6 -22 17 4 5 8 9 11 9 3 0 2 -4 -1 -10z
m102 -7 c0 -7 -5 -13 -11 -13 -6 0 -4 -4 4 -10 8 -5 11 -12 7 -17 -11 -10 -26
17 -20 36 3 11 -1 9 -14 -5 -15 -17 -21 -18 -31 -8 -16 18 -15 29 2 15 10 -8
16 -8 25 2 14 18 38 18 38 0z m56 -36 c-4 -7 1 -8 12 -3 18 6 35 -7 35 -29 0
-5 -5 -3 -10 5 -5 8 -17 15 -27 15 -10 0 -18 6 -18 14 0 8 -6 16 -13 19 -7 2
-10 -2 -6 -11 3 -8 2 -17 -3 -20 -4 -3 -9 10 -9 28 l-1 33 23 -21 c13 -11 20
-25 17 -30z m698 39 c5 3 9 0 9 -6 0 -6 5 -8 12 -4 7 4 8 3 4 -4 -4 -6 -13 -9
-21 -5 -11 3 -13 1 -9 -10 3 -8 2 -17 -3 -20 -4 -3 -8 11 -9 31 -1 21 1 31 3
24 3 -6 9 -10 14 -6z m-1464 -2 c-3 -3 -12 -4 -19 -1 -8 3 -5 6 6 6 11 1 17
-2 13 -5z m27 -3 c3 -5 -2 -15 -12 -22 -15 -12 -16 -12 -5 2 7 9 10 19 6 22
-3 4 -4 7 0 7 3 0 8 -4 11 -9z m123 -6 c0 -8 -4 -12 -9 -9 -4 3 -8 9 -8 15 0
5 4 9 8 9 5 0 9 -7 9 -15z m653 -1 c0 -2 -7 -4 -15 -4 -8 0 -15 4 -15 10 0 5
7 7 15 4 8 -4 15 -8 15 -10z m592 -10 c-5 -10 -17 -19 -26 -20 -9 -1 -14 2
-10 7 3 5 9 7 14 4 5 -3 12 4 15 16 4 11 9 18 12 16 3 -3 0 -13 -5 -23z m36 1
c0 -13 -4 -22 -9 -19 -5 3 -9 0 -9 -5 0 -6 -5 -11 -10 -11 -6 0 -4 10 5 23 8
13 12 27 8 30 -3 4 -2 7 4 7 6 0 11 -11 11 -25z m112 8 c-14 -10 -27 -16 -29
-14 -2 1 -8 -3 -12 -11 -5 -7 -9 -8 -9 -3 0 6 5 17 10 25 8 13 10 13 10 0 0
-12 3 -11 17 3 10 9 22 17 27 17 6 0 -1 -8 -14 -17z m130 7 c-14 -9 -7 -14 13
-11 5 1 6 -3 2 -8 -6 -11 -35 -4 -35 8 0 11 12 21 24 21 6 0 4 -5 -4 -10z m82
3 c-6 -2 -10 -9 -7 -13 3 -5 1 -11 -4 -14 -7 -5 -8 11 -2 32 1 1 7 2 14 1 9 0
9 -2 -1 -6z m456 -28 c-3 -3 -9 2 -12 12 -6 14 -5 15 5 6 7 -7 10 -15 7 -18z
m-1858 10 c0 -7 -30 -13 -34 -7 -3 4 4 9 15 9 10 1 19 0 19 -2z m140 1 c0 -3
-4 -8 -10 -11 -5 -3 -10 -1 -10 4 0 6 5 11 10 11 6 0 10 -2 10 -4z m60 -6 c0
-5 -2 -10 -4 -10 -3 0 -8 5 -11 10 -3 6 -1 10 4 10 6 0 11 -4 11 -10z m297 -3
c0 -7 -9 -13 -19 -13 -18 0 -18 1 -2 13 10 7 18 13 19 13 1 0 2 -6 2 -13z
m503 9 c0 -2 -7 -7 -16 -10 -8 -3 -12 -2 -9 4 6 10 25 14 25 6z m207 -7 c-9
-6 -14 -15 -11 -21 4 -7 2 -8 -5 -4 -14 9 3 36 23 36 6 0 3 -5 -7 -11z m323 7
c0 -2 -8 -10 -17 -17 -16 -13 -17 -12 -4 4 13 16 21 21 21 13z m150 -1 c0 -7
-30 -13 -34 -7 -3 4 4 9 15 9 10 1 19 0 19 -2z m315 -15 c3 -5 1 -10 -4 -10
-6 0 -11 5 -11 10 0 6 2 10 4 10 3 0 8 -4 11 -10z m-2318 -7 c-4 -3 -1 -13 6
-22 11 -14 10 -14 -5 -2 -16 12 -16 31 -1 31 4 0 3 -3 0 -7z m208 -3 c-3 -5
-12 -10 -18 -10 -7 0 -6 4 3 10 19 12 23 12 15 0z m55 6 c0 -3 -4 -8 -10 -11
-5 -3 -10 -1 -10 4 0 6 5 11 10 11 6 0 10 -2 10 -4z m310 -2 c0 -8 -19 -13
-24 -6 -3 5 1 9 9 9 8 0 15 -2 15 -3z m690 -4 c0 -5 -5 -10 -11 -10 -5 0 -7 5
-4 10 3 6 8 10 11 10 2 0 4 -4 4 -10z m320 5 c0 -7 -30 -13 -34 -7 -3 4 4 9
15 9 10 1 19 0 19 -2z m648 -23 c-11 -13 -10 -15 5 -9 10 4 16 3 12 -2 -3 -6
-14 -9 -25 -8 -17 1 -18 3 -5 17 8 9 12 20 8 25 -5 4 -2 5 5 1 11 -6 11 -11 0
-24z m-2385 11 c-7 -2 -19 -2 -25 0 -7 3 -2 5 12 5 14 0 19 -2 13 -5z m993 -1
c-5 -9 23 -35 43 -40 7 -1 20 -10 29 -19 15 -14 17 -14 23 3 6 15 8 16 8 3 1
-9 -7 -23 -16 -30 -9 -8 -14 -9 -10 -3 4 7 0 15 -8 18 -12 4 -14 0 -9 -22 l6
-27 -14 25 c-10 17 -11 27 -4 32 6 4 8 8 4 9 -5 1 -11 2 -15 3 -20 3 -54 36
-48 45 3 6 8 11 11 11 3 0 3 -4 0 -8z m41 -6 c0 -8 -6 -12 -15 -9 -11 5 -11 7
0 14 7 5 13 9 14 9 0 0 1 -6 1 -14z m462 2 c12 4 12 3 0 -10 -9 -10 -16 -12
-21 -5 -4 7 -12 4 -23 -6 -19 -19 -41 -22 -50 -7 -4 6 -10 8 -14 6 -4 -3 -8 1
-8 9 0 12 4 12 21 -1 24 -17 40 -18 30 -3 -9 15 16 29 35 20 9 -5 22 -6 30 -3z
m-529 -8 c0 -5 -4 -10 -10 -10 -5 0 -10 5 -10 10 0 6 5 10 10 10 6 0 10 -4 10
-10z m-506 -19 c17 -19 17 -19 0 -17 -9 2 -18 10 -20 19 -3 21 -1 21 20 -2z
m447 -4 c-10 -9 -11 -8 -5 6 3 10 9 15 12 12 3 -3 0 -11 -7 -18z m-524 -2 c0
-8 -4 -12 -9 -9 -5 3 -6 10 -3 15 9 13 12 11 12 -6z m371 -10 c-3 -3 -9 2 -12
12 -6 14 -5 15 5 6 7 -7 10 -15 7 -18z m606 10 c-4 -8 -11 -12 -16 -9 -6 4 -5
10 3 15 19 12 19 11 13 -6z m150 -1 c3 -8 2 -12 -4 -9 -6 3 -10 10 -10 16 0
14 7 11 14 -7z m330 0 c5 -14 4 -15 -9 -4 -17 14 -19 20 -6 20 5 0 12 -7 15
-16z m216 11 c0 -7 -30 -13 -34 -7 -3 4 4 9 15 9 10 1 19 0 19 -2z m54 -10 c3
-8 1 -15 -4 -15 -6 0 -10 7 -10 15 0 8 2 15 4 15 2 0 6 -7 10 -15z m26 0 c0
-8 -2 -15 -4 -15 -2 0 -6 7 -10 15 -3 8 -1 15 4 15 6 0 10 -7 10 -15z m110 5
c0 -3 -18 -6 -39 -5 -22 0 -37 3 -35 6 4 8 74 7 74 -1z m-1293 -6 c-3 -3 -12
-4 -19 -1 -8 3 -5 6 6 6 11 1 17 -2 13 -5z m20 -16 c-3 -8 -6 -5 -6 6 -1 11 2
17 5 13 3 -3 4 -12 1 -19z m416 1 c3 7 4 7 3 -1 -2 -7 1 -22 7 -33 5 -11 6
-17 2 -13 -4 4 -14 0 -22 -10 -13 -15 -13 -14 -3 6 14 29 8 38 -12 19 -12 -12
-17 -13 -33 -1 -15 11 -20 11 -27 1 -5 -8 -8 -8 -8 -1 0 6 8 18 17 25 9 8 14
9 10 3 -4 -7 5 -11 22 -11 22 0 28 4 24 16 -4 13 -3 13 5 2 7 -9 11 -10 15 -2z
m92 1 c3 -6 -1 -7 -9 -4 -18 7 -21 14 -7 14 6 0 13 -4 16 -10z m185 0 c12 -7
10 -9 -8 -7 -12 0 -22 5 -22 9 0 11 12 10 30 -2z m-653 -17 c-4 -3 1 -12 11
-20 15 -13 15 -13 -6 -3 -19 9 -23 30 -5 30 4 0 3 -3 0 -7z m411 -18 c-3 -3
-9 2 -12 12 -6 14 -5 15 5 6 7 -7 10 -15 7 -18z m27 16 c3 -5 2 -12 -3 -15 -5
-3 -9 1 -9 9 0 17 3 19 12 6z m-545 -19 c0 -13 -12 -22 -22 -16 -10 6 -1 24
13 24 5 0 9 -4 9 -8z m630 4 c0 -3 -4 -8 -10 -11 -5 -3 -10 -1 -10 4 0 6 5 11
10 11 6 0 10 -2 10 -4z m-558 -20 c7 4 8 2 4 -4 -4 -7 -2 -12 3 -12 6 0 11 -5
11 -12 0 -6 -7 -5 -18 5 -14 13 -21 14 -30 5 -16 -16 -15 -1 1 16 6 8 14 10
15 5 2 -5 9 -6 14 -3z m353 4 c3 -5 1 -10 -4 -10 -6 0 -11 5 -11 10 0 6 2 10
4 10 3 0 8 -4 11 -10z m-91 -8 c3 -5 -1 -9 -9 -9 -8 0 -12 4 -9 9 3 4 7 8 9 8
2 0 6 -4 9 -8z m116 -28 c0 -2 -7 -4 -15 -4 -8 0 -15 4 -15 10 0 5 7 7 15 4 8
-4 15 -8 15 -10z m-120 -74 c0 -5 -8 -10 -17 -10 -15 0 -16 2 -3 10 19 12 20
12 20 0z"/>
<path d="M1550 4925 c0 -5 5 -17 10 -25 5 -8 10 -10 10 -5 0 6 -5 17 -10 25
-5 8 -10 11 -10 5z"/>
<path d="M1795 4911 c-3 -5 -2 -12 3 -15 5 -3 9 1 9 9 0 17 -3 19 -12 6z"/>
<path d="M1726 4902 c-2 -4 -1 -14 4 -22 7 -11 9 -9 7 8 -1 24 -3 26 -11 14z"/>
<path d="M2015 4896 c11 -9 26 -20 33 -26 8 -7 12 -7 12 -1 0 6 -15 18 -32 26
-28 13 -30 14 -13 1z"/>
<path d="M3675 4900 c-2 -3 10 -6 26 -5 16 0 29 3 29 7 0 9 -50 7 -55 -2z"/>
<path d="M1323 4875 c0 -16 -3 -38 -7 -47 -6 -12 -4 -18 5 -18 7 0 9 3 6 7 -4
3 0 17 8 30 9 13 11 23 6 23 -5 0 -12 8 -14 18 -2 9 -4 4 -4 -13z"/>
<path d="M1955 4889 c-4 -6 -5 -12 -2 -15 2 -3 7 2 10 11 7 17 1 20 -8 4z"/>
<path d="M2108 4893 c7 -3 16 -2 19 1 4 3 -2 6 -13 5 -11 0 -14 -3 -6 -6z"/>
<path d="M3153 4886 c0 -7 6 -13 14 -13 7 0 13 4 13 8 0 4 -6 9 -13 12 -8 3
-14 0 -14 -7z"/>
<path d="M3270 4891 c0 -5 7 -12 16 -15 14 -5 15 -4 4 9 -14 17 -20 19 -20 6z"/>
<path d="M3001 4874 c0 -11 3 -14 6 -6 3 7 2 16 -1 19 -3 4 -6 -2 -5 -13z"/>
<path d="M3040 4880 c-9 -6 -10 -10 -3 -10 6 0 15 5 18 10 8 12 4 12 -15 0z"/>
<path d="M3220 4886 c0 -2 7 -7 16 -10 8 -3 12 -2 9 4 -6 10 -25 14 -25 6z"/>
<path d="M3500 4879 c0 -5 5 -7 10 -4 6 3 10 8 10 11 0 2 -4 4 -10 4 -5 0 -10
-5 -10 -11z"/>
<path d="M2255 4850 c3 -5 8 -10 11 -10 2 0 4 5 4 10 0 6 -5 10 -11 10 -5 0
-7 -4 -4 -10z"/>
<path d="M1310 4740 c0 -5 5 -10 11 -10 5 0 7 5 4 10 -3 6 -8 10 -11 10 -2 0
-4 -4 -4 -10z"/>
<path d="M2616 4722 c-3 -5 1 -9 9 -9 8 0 15 4 15 9 0 4 -4 8 -9 8 -6 0 -12
-4 -15 -8z"/>
<path d="M3932 4600 c0 -14 2 -19 5 -12 2 6 2 18 0 25 -3 6 -5 1 -5 -13z"/>
<path d="M1310 4580 c0 -5 5 -10 11 -10 5 0 7 5 4 10 -3 6 -8 10 -11 10 -2 0
-4 -4 -4 -10z"/>
<path d="M1352 4350 c-22 -21 -30 -36 -13 -26 5 4 12 0 14 -6 4 -10 6 -10 6 0
1 8 6 10 14 6 9 -6 9 -5 0 7 -10 12 -10 18 -1 27 21 21 3 13 -20 -8z"/>
<path d="M3900 4286 c0 -2 9 -6 20 -9 11 -3 18 -1 14 4 -5 9 -34 13 -34 5z"/>
<path d="M1331 4271 c-10 -6 -9 -10 4 -15 9 -3 13 -11 9 -17 -4 -7 -3 -9 4 -6
10 7 11 31 1 41 -2 3 -10 1 -18 -3z"/>
<path d="M3910 4239 c0 -5 5 -7 10 -4 6 3 10 8 10 11 0 2 -4 4 -10 4 -5 0 -10
-5 -10 -11z"/>
<path d="M1435 4219 c-4 -6 -5 -12 -2 -15 2 -3 7 2 10 11 7 17 1 20 -8 4z"/>
<path d="M1522 4206 c7 -8 15 -12 17 -11 5 6 -10 25 -20 25 -5 0 -4 -6 3 -14z"/>
<path d="M1595 4210 c-4 -6 -4 -14 -1 -17 3 -4 6 0 6 8 0 12 2 12 10 -1 5 -8
12 -12 15 -9 3 4 -1 12 -9 18 -10 9 -16 9 -21 1z"/>
<path d="M1966 4205 c3 -6 11 -12 18 -12 8 0 12 6 10 12 -3 6 -11 12 -18 12
-8 0 -12 -6 -10 -12z"/>
<path d="M3735 4210 c3 -5 8 -10 11 -10 2 0 4 5 4 10 0 6 -5 10 -11 10 -5 0
-7 -4 -4 -10z"/>
<path d="M3153 4191 c1 -15 4 -17 14 -9 7 5 10 14 7 19 -10 16 -23 9 -21 -10z"/>
<path d="M3200 4200 c-9 -6 -10 -10 -3 -10 6 0 15 5 18 10 8 12 4 12 -15 0z"/>
<path d="M3350 4199 c0 -5 5 -7 10 -4 6 3 10 8 10 11 0 2 -4 4 -10 4 -5 0 -10
-5 -10 -11z"/>
<path d="M3706 4202 c-3 -5 1 -9 9 -9 8 0 12 4 9 9 -3 4 -7 8 -9 8 -2 0 -6 -4
-9 -8z"/>
<path d="M3220 4186 c0 -2 7 -7 16 -10 8 -3 12 -2 9 4 -6 10 -25 14 -25 6z"/>
<path d="M2150 4171 c0 -6 4 -13 10 -16 6 -3 7 1 4 9 -7 18 -14 21 -14 7z"/>
<path d="M2868 4138 c-3 -7 -3 -19 0 -26 3 -10 8 -7 19 8 8 12 12 24 9 27 -3
4 -6 0 -6 -8 0 -11 -2 -12 -9 -1 -7 11 -9 11 -13 0z"/>
<path d="M2538 4124 c-4 -3 -4 -13 -1 -22 4 -12 1 -11 -10 3 -8 11 -19 17 -23
13 -4 -4 -1 -15 7 -24 11 -14 10 -19 -11 -35 -15 -12 -18 -17 -7 -13 9 3 17 1
17 -5 0 -6 9 -20 19 -30 16 -16 21 -17 25 -6 3 8 1 17 -5 21 -6 3 -7 13 -4 23
15 37 10 92 -7 75z m-3 -90 c9 -15 12 -23 6 -20 -11 7 -35 46 -28 46 3 0 12
-12 22 -26z"/>
<path d="M2679 4123 c-8 -54 -6 -73 7 -62 7 6 19 7 26 3 7 -4 3 4 -8 17 -12
13 -19 30 -17 37 3 6 2 12 -1 12 -3 0 -6 -3 -7 -7z"/>
<path d="M2573 4108 c-5 -7 -10 -24 -11 -37 0 -13 0 -22 1 -20 1 2 10 13 19
24 10 12 14 26 9 33 -6 10 -10 10 -18 0z"/>
<path d="M2425 4089 c-4 -5 2 -6 12 -2 16 6 17 5 3 -13 -14 -19 -14 -19 8 0
12 11 22 20 22 20 0 7 -41 3 -45 -5z"/>
<path d="M2605 4069 c-3 -4 2 -6 10 -5 21 3 28 13 10 13 -9 0 -18 -4 -20 -8z"/>
<path d="M2755 4040 c-3 -5 -1 -10 4 -10 6 0 11 5 11 10 0 6 -2 10 -4 10 -3 0
-8 -4 -11 -10z"/>
<path d="M2595 3889 c-4 -6 -5 -12 -2 -15 2 -3 7 2 10 11 7 17 1 20 -8 4z"/>
<path d="M2635 3881 c-3 -5 -2 -12 3 -15 5 -3 9 1 9 9 0 17 -3 19 -12 6z"/>
<path d="M2565 3839 c11 -15 25 -24 30 -21 6 3 4 -1 -2 -10 -7 -8 -11 -17 -8
-20 3 -3 -4 -13 -15 -23 -22 -20 -27 -40 -7 -29 6 4 4 -2 -6 -14 -11 -11 -25
-18 -33 -15 -9 3 -14 -1 -14 -12 0 -9 4 -14 8 -11 5 3 9 -1 9 -9 0 -13 -5 -12
-26 2 -25 16 -25 16 -11 -2 8 -10 14 -20 13 -22 -6 -7 -2 -23 5 -20 4 1 8 -2
9 -6 1 -4 9 -20 19 -35 17 -26 17 -26 -1 -12 -10 8 -20 14 -22 12 -3 -2 -8 0
-11 4 -4 4 -1 4 6 0 6 -4 12 -3 12 2 0 6 -6 12 -13 15 -8 3 -13 -3 -13 -18 0
-13 2 -23 6 -23 20 2 29 -4 24 -17 -5 -11 -2 -13 10 -9 9 3 16 2 16 -3 0 -5
-11 -9 -25 -9 -19 0 -24 4 -20 16 5 11 3 12 -6 3 -13 -13 -3 -37 12 -28 5 4 9
2 9 -3 0 -6 -7 -13 -16 -16 -8 -3 -12 -10 -9 -16 3 -6 -1 -13 -10 -16 -13 -5
-13 -8 -2 -18 21 -17 29 -46 12 -39 -8 3 -13 9 -10 13 3 5 1 12 -5 15 -6 4 -9
1 -8 -6 2 -7 -4 -13 -12 -14 -8 0 -14 -6 -12 -13 1 -7 -3 -12 -9 -12 -5 0 -8
-4 -4 -9 3 -6 -4 -8 -17 -6 -12 3 -26 -1 -30 -8 -6 -9 -8 -9 -8 0 0 7 -7 10
-17 7 -15 -5 -15 -4 -3 4 8 6 18 8 22 6 4 -3 8 -1 8 4 0 6 -7 13 -16 16 -9 4
-13 2 -8 -5 4 -7 1 -10 -7 -7 -8 3 -22 -4 -31 -15 -13 -14 -18 -16 -18 -6 0
11 -2 11 -11 -1 -9 -13 -10 -13 -6 0 2 8 9 15 15 15 5 0 14 4 19 9 4 5 3 6 -4
3 -6 -4 -14 -1 -16 5 -4 10 -6 10 -6 1 -1 -7 -5 -13 -11 -13 -5 0 -7 8 -4 18
5 16 5 16 -6 -1 -6 -9 -9 -21 -5 -26 3 -5 0 -13 -6 -17 -7 -4 -9 -3 -6 3 8 13
-18 24 -38 17 -14 -6 -20 7 -15 31 1 5 -8 1 -20 -10 -12 -11 -24 -18 -27 -17
-3 2 -8 0 -11 -4 -4 -4 -1 -4 6 0 7 4 12 2 12 -6 1 -8 7 -5 17 7 12 15 14 16
10 3 -3 -9 -1 -19 6 -22 11 -5 -24 0 -63 8 -8 2 -21 -2 -29 -8 -11 -8 -13 -8
-7 2 7 12 -4 16 -33 13 -7 -2 -10 2 -6 8 3 6 1 11 -4 11 -6 0 -11 -9 -11 -19
0 -11 -4 -22 -9 -25 -4 -3 -7 7 -5 22 2 15 1 19 -2 10 -4 -14 -10 -15 -35 -6
-16 5 -29 15 -29 21 0 7 4 7 12 -1 15 -15 28 -15 28 0 0 6 -3 8 -7 5 -3 -4
-12 -2 -19 4 -8 6 -14 7 -18 0 -9 -15 -36 -2 -36 17 0 13 2 13 13 -2 12 -16
14 -16 14 -2 0 16 -9 20 -34 17 -15 -2 -18 16 -4 21 5 2 2 10 -7 18 -14 13
-15 12 -9 -3 7 -19 -1 -21 -23 -7 -13 9 -13 10 0 10 9 1 5 6 -10 14 -14 8 -29
12 -34 9 -5 -4 -6 -1 -2 6 4 6 11 9 15 7 4 -3 8 1 8 8 0 7 -7 13 -16 12 -9 0
-16 5 -17 12 -1 6 -2 18 -3 25 -1 8 -4 8 -11 -3 -6 -10 -4 -21 8 -35 16 -19
16 -19 -3 -5 -11 8 -26 23 -33 33 -7 9 -19 17 -25 16 -9 0 -8 -2 1 -6 6 -2 9
-10 6 -15 -4 -7 -2 -8 4 -4 7 4 12 2 12 -3 0 -6 -7 -11 -15 -11 -8 0 -15 4
-15 10 0 10 -35 8 -46 -3 -4 -3 4 -4 17 -2 23 4 23 4 5 -10 -11 -8 -14 -15 -8
-15 7 0 12 -7 12 -16 0 -14 -3 -14 -15 -4 -20 17 -19 6 1 -15 15 -15 15 -17
-2 -31 -18 -14 -18 -14 0 -7 15 5 17 3 10 -8 -11 -17 -14 -60 -3 -54 4 3 18
-4 30 -16 24 -20 24 -20 1 -9 -23 11 -42 6 -42 -11 0 -5 5 -9 11 -9 5 0 7 5 4
10 -11 18 11 11 30 -10 16 -18 16 -20 2 -26 -13 -4 -14 -10 -7 -24 7 -13 6
-21 -2 -26 -6 -4 -8 -3 -4 4 3 6 2 13 -3 16 -5 4 -8 -2 -6 -11 1 -10 10 -17
20 -16 11 1 14 -2 7 -9 -7 -7 -17 -6 -32 2 -21 11 -21 11 -4 -17 l18 -28 -21
18 c-18 16 -21 16 -27 2 -3 -9 -2 -13 4 -10 23 14 8 -17 -20 -41 -16 -15 -28
-30 -25 -33 2 -4 -12 -6 -31 -6 -33 2 -39 -4 -34 -34 2 -13 0 -13 -16 0 -16
13 -16 12 -5 -9 7 -12 17 -20 23 -16 7 5 8 2 4 -5 -5 -7 -11 -10 -14 -7 -3 3
-12 0 -20 -7 -13 -10 -14 -9 -7 2 5 10 4 12 -4 7 -9 -6 -9 -11 -1 -21 8 -10 8
-15 -1 -21 -8 -4 -9 -3 -5 4 4 7 2 12 -3 12 -6 0 -11 -7 -11 -16 0 -8 -5 -12
-10 -9 -6 4 -7 11 -4 17 4 7 2 8 -4 4 -6 -4 -8 -14 -5 -23 5 -12 3 -14 -7 -8
-8 5 -11 4 -6 -3 3 -6 -2 -15 -11 -21 -11 -6 -13 -11 -5 -11 7 0 10 -5 6 -12
-4 -7 -3 -8 5 -4 6 4 8 12 5 18 -5 7 -2 8 6 3 8 -5 11 -4 6 3 -7 12 12 28 21
18 4 -3 -4 -17 -17 -31 -13 -14 -20 -25 -16 -25 5 0 3 -6 -3 -13 -6 -8 -7 -18
-3 -23 4 -4 -1 -2 -11 6 -15 11 -20 11 -27 1 -4 -7 -10 -9 -12 -5 -3 5 -3 2 0
-6 2 -8 5 -20 5 -27 0 -7 4 -10 8 -7 5 2 6 11 3 18 -3 8 -1 17 5 21 12 7 11
-22 -1 -41 -4 -6 -5 -21 -3 -33 4 -22 4 -23 -23 -5 -19 12 -23 13 -15 3 10
-12 9 -20 -4 -40 -17 -24 -17 -24 4 -6 16 14 23 15 29 6 4 -8 3 -10 -4 -5 -12
7 -15 -1 -15 -36 0 -10 -3 -15 -8 -12 -13 8 -47 -18 -42 -33 3 -7 10 -10 17
-7 6 4 1 -4 -11 -16 -20 -21 -23 -22 -37 -7 -9 9 -25 14 -35 12 -19 -4 -23 17
-6 32 4 4 5 2 0 -6 -6 -10 -4 -12 5 -6 8 5 11 4 6 -3 -4 -6 3 -9 19 -8 14 2
22 -1 18 -7 -3 -6 -1 -7 6 -3 9 6 9 11 0 22 -14 17 -23 19 -13 3 4 -7 1 -10
-7 -7 -8 3 -12 12 -11 19 2 8 0 11 -4 7 -4 -4 -14 -2 -22 5 -9 6 -13 7 -10 2
4 -6 -2 -16 -13 -23 -15 -10 -19 -10 -17 0 2 7 -1 12 -7 13 -19 1 -35 16 -29
27 4 6 1 9 -7 6 -19 -7 -49 9 -45 25 1 6 1 9 -1 5 -8 -14 -33 -8 -33 8 0 8 4
13 9 9 5 -3 12 -1 15 4 4 5 -2 8 -11 7 -13 -2 -18 -12 -19 -37 0 -41 -17 -46
-19 -6 -1 15 -5 31 -9 35 -5 4 -6 -2 -4 -13 2 -14 -2 -19 -14 -17 -9 1 -19 -2
-23 -8 -3 -5 0 -7 8 -4 16 6 26 -5 32 -36 2 -11 0 -18 -6 -15 -5 4 -9 -1 -9
-9 0 -9 -5 -16 -10 -16 -7 0 -7 6 0 20 7 14 7 20 0 20 -5 0 -10 -7 -10 -16 0
-9 -5 -12 -12 -8 -7 4 -6 -1 3 -12 9 -10 14 -25 12 -32 -3 -6 1 -10 9 -9 7 2
10 2 5 0 -4 -3 -4 -9 -1 -15 4 -6 -1 -6 -14 1 -17 9 -20 8 -18 -6 2 -8 10 -21
20 -28 10 -7 18 -17 19 -22 1 -4 7 -7 12 -5 6 2 4 -2 -2 -9 -10 -10 -9 -17 8
-35 19 -21 20 -22 3 -19 -11 1 -17 9 -16 16 2 8 0 10 -4 6 -12 -11 -14 -38 -3
-31 5 3 14 -8 20 -25 6 -17 15 -28 20 -25 5 3 9 0 9 -6 0 -7 -7 -10 -15 -6 -8
3 -15 1 -15 -3 0 -5 6 -11 14 -14 9 -4 12 -14 9 -28 -5 -17 -3 -20 7 -14 9 5
11 4 6 -4 -6 -9 -11 -9 -21 -1 -10 9 -13 7 -11 -7 2 -13 10 -17 29 -15 15 2
27 -1 27 -7 0 -6 -6 -8 -13 -5 -10 3 -13 -4 -12 -28 1 -18 5 -32 8 -30 4 1 9
2 12 2 3 0 0 10 -6 23 -6 12 -8 19 -4 15 5 -4 15 -2 23 5 13 10 14 9 6 -3 -12
-19 -13 -60 -1 -53 5 3 6 -4 2 -17 -6 -20 -5 -21 8 -9 11 10 12 19 5 34 -9 20
-9 20 6 1 13 -16 13 -22 3 -34 -10 -13 -9 -14 13 -2 23 12 24 12 11 -4 -12
-14 -12 -16 3 -10 12 5 15 2 10 -12 -5 -15 -4 -16 5 -4 13 19 78 21 78 3 0
-16 -14 -17 -19 -1 -3 9 -6 9 -12 0 -4 -7 0 -15 11 -19 10 -4 24 -14 31 -22
11 -14 11 -13 2 7 -8 16 -8 22 0 22 6 0 9 4 5 9 -3 5 -1 12 4 15 4 3 8 -2 8
-12 0 -41 2 -44 19 -28 8 9 20 13 26 10 7 -4 8 -2 4 4 -4 6 -13 9 -21 5 -8 -3
-15 0 -15 5 0 6 10 9 22 7 12 -3 28 1 37 8 12 9 13 9 7 0 -5 -9 0 -13 18 -13
16 0 27 -7 31 -20 3 -11 11 -20 16 -20 6 0 7 4 4 10 -3 6 1 7 9 4 13 -5 12 -9
-7 -26 l-22 -19 23 11 c18 9 22 8 22 -5 0 -13 12 -19 33 -16 4 0 7 -4 7 -10 0
-6 -8 -8 -17 -5 -17 6 -17 5 0 -8 22 -17 22 -27 0 -20 -14 5 -15 4 -4 -4 21
-15 39 -4 35 21 -4 21 -4 21 5 2 5 -11 5 -25 0 -31 -10 -12 -2 -24 15 -24 6 0
4 5 -4 10 -8 5 -12 10 -8 10 4 0 24 -11 44 -25 20 -14 33 -25 28 -25 -5 0 -19
6 -30 14 -14 10 -25 11 -35 5 -12 -8 -12 -10 1 -8 8 1 31 -5 49 -13 19 -9 42
-13 50 -10 9 3 13 2 9 -2 -3 -4 -14 -9 -24 -10 -10 -2 -20 -9 -22 -17 -2 -10
-1 -10 5 -2 13 17 47 -11 39 -33 -6 -15 -4 -15 10 -3 14 11 18 11 22 1 2 -7
10 -18 17 -26 11 -10 11 -16 2 -26 -10 -10 -7 -10 11 0 23 11 23 12 5 25 -10
8 -13 15 -7 15 15 0 36 -25 27 -33 -3 -4 -1 -7 5 -7 7 0 12 5 12 12 0 6 3 8 6
5 4 -4 1 -14 -7 -23 -13 -16 -12 -16 8 -6 32 17 38 15 14 -5 -16 -14 -18 -21
-10 -33 9 -13 10 -13 6 2 -11 31 21 27 37 -5 9 -19 16 -25 16 -15 0 9 -4 20
-10 23 -5 3 -10 11 -10 17 0 6 8 1 19 -10 22 -27 32 -28 25 -4 -5 14 -4 14 4
3 11 -16 57 -27 47 -12 -3 5 -1 12 4 15 5 4 8 -2 7 -11 -2 -12 -12 -18 -31
-18 -17 0 -30 -6 -32 -15 -3 -9 -1 -11 4 -4 4 5 22 9 40 8 19 0 30 3 26 9 -3
5 0 7 8 5 8 -3 13 -11 11 -18 -3 -11 0 -11 12 0 17 14 22 25 7 15 -5 -3 -13 0
-17 7 -11 17 -12 48 -2 42 8 -5 40 21 33 27 -2 2 9 5 23 6 l27 1 -25 -14 -25
-13 28 1 c15 2 27 7 27 13 0 5 4 3 9 -5 14 -21 2 -33 -17 -18 -12 10 -14 10
-8 1 9 -15 1 -16 -23 -3 -14 7 -23 5 -36 -10 -10 -12 -13 -20 -7 -20 7 0 12 4
12 8 0 5 17 8 38 7 20 -1 48 4 61 12 13 8 21 10 17 5 -3 -6 -1 -14 5 -18 6 -3
15 -1 19 6 8 14 21 -11 16 -32 -1 -7 -1 -10 1 -5 7 11 33 8 33 -4 0 -5 -6 -7
-12 -3 -7 4 -9 3 -5 -1 14 -16 36 -14 31 3 -3 10 2 5 11 -10 16 -29 31 -38 22
-15 -3 8 -1 20 4 28 6 10 9 10 9 2 0 -7 5 -13 11 -13 5 0 7 5 4 10 -3 6 -2 10
3 10 6 0 13 -7 16 -16 3 -8 2 -13 -3 -10 -5 3 -15 -2 -22 -11 -12 -14 -12 -16
1 -8 17 10 44 16 79 16 16 1 20 4 11 9 -9 5 -9 9 -1 15 8 5 9 11 2 19 -8 9 -7
13 4 13 8 0 12 -4 10 -8 -3 -4 2 -10 11 -13 24 -9 28 -7 14 8 -9 11 -9 19 0
33 10 16 10 15 5 -5 -4 -15 -1 -24 10 -28 14 -6 14 -8 -2 -19 -14 -10 -21 -11
-32 -2 -12 10 -12 9 0 -10 14 -24 36 -33 23 -10 -5 9 -4 9 6 0 7 -6 20 -9 29
-6 13 4 14 3 1 -5 -8 -6 -18 -8 -22 -6 -4 3 -8 -2 -8 -10 0 -9 -6 -16 -12 -16
-8 0 -9 -3 -3 -8 17 -12 16 -34 -2 -49 -17 -13 -16 -13 4 -4 27 14 43 14 23 1
-8 -5 -15 -17 -15 -26 0 -10 -6 -18 -13 -20 -7 -1 -8 0 -2 3 5 2 10 9 10 14 0
6 -7 6 -18 0 -10 -5 -24 -6 -32 -1 -7 4 -20 6 -28 2 -11 -4 -13 -1 -7 8 5 9 4
11 -4 6 -6 -4 -8 -12 -5 -18 4 -7 2 -8 -4 -4 -7 4 -12 2 -12 -3 0 -6 -5 -11
-11 -11 -5 0 -8 4 -5 9 4 5 3 11 -1 14 -5 2 -2 2 5 1 6 -2 12 0 12 5 0 5 -28
8 -62 6 -35 -1 -69 3 -77 9 -11 8 -13 8 -7 -1 4 -7 2 -13 -4 -13 -8 0 -8 -6 0
-20 9 -16 8 -18 -5 -14 -8 3 -13 9 -11 13 3 4 1 13 -5 21 -7 12 -9 11 -10 -5
-1 -11 -1 -27 0 -35 2 -13 1 -13 -8 0 -5 8 -7 18 -5 22 3 4 0 9 -5 9 -6 1 -16
2 -21 3 -6 0 -14 7 -19 14 -6 11 -10 10 -15 -4 -6 -16 -8 -16 -16 -4 -8 12
-10 12 -10 1 0 -11 -3 -11 -15 -1 -13 11 -14 10 -9 -4 4 -11 13 -15 22 -11 9
3 13 3 9 -1 -4 -4 -1 -14 6 -23 10 -14 10 -14 -4 -4 -11 9 -18 10 -27 1 -8 -8
-16 -2 -30 21 -10 17 -22 28 -25 24 -10 -9 -9 -25 1 -19 5 3 9 -1 9 -9 0 -8
-4 -15 -9 -15 -4 0 -8 5 -8 11 0 5 -5 7 -12 3 -6 -4 -8 -3 -5 3 4 6 -6 9 -26
9 -18 -1 -36 3 -40 8 -5 7 -7 5 -4 -4 2 -10 14 -14 33 -13 20 2 25 0 15 -6 -7
-5 -21 -7 -30 -6 -9 2 -22 4 -29 4 -7 1 -11 5 -8 9 3 5 -1 9 -8 9 -7 0 -13 -6
-13 -13 0 -7 4 -11 9 -8 4 3 5 -2 2 -11 -6 -14 -8 -14 -21 2 -8 10 -12 13 -9
6 7 -13 -31 -12 -53 1 -15 10 -26 1 -17 -13 4 -5 15 -8 26 -6 21 4 36 -10 21
-19 -5 -4 -13 -2 -16 4 -5 8 -12 7 -23 -2 -9 -7 -13 -8 -9 -2 4 8 -2 11 -18
10 -16 0 -23 -6 -20 -13 2 -7 -1 -12 -8 -10 -7 1 -11 -4 -9 -12 3 -12 0 -12
-11 -2 -12 9 -16 9 -20 -1 -4 -10 -6 -10 -6 0 -1 6 -6 12 -12 12 -5 0 -7 -5
-4 -10 3 -5 1 -10 -4 -10 -6 0 -11 4 -11 9 0 5 -7 12 -16 15 -15 6 -15 4 0
-19 9 -14 12 -25 6 -25 -5 0 -10 4 -10 10 0 5 -7 7 -15 4 -13 -5 -13 -9 -3
-23 10 -13 9 -13 -8 1 -25 21 -41 24 -25 4 9 -11 9 -16 0 -22 -7 -4 -9 -3 -5
4 3 6 1 14 -6 19 -19 11 -39 13 -32 2 3 -5 9 -7 13 -5 4 3 8 -1 8 -9 0 -11 -5
-11 -19 -4 -16 9 -19 7 -16 -8 2 -12 -2 -17 -14 -15 -13 2 -16 -2 -12 -15 3
-11 2 -14 -3 -8 -4 6 -15 10 -23 10 -8 -1 -21 4 -29 9 -11 8 -13 8 -8 -1 5 -7
-1 -16 -13 -23 -11 -6 -20 -18 -20 -28 0 -9 -5 -24 -11 -32 -8 -12 -9 -11 -5
6 4 13 2 21 -7 21 -9 0 -12 -9 -9 -24 2 -13 -1 -23 -7 -23 -7 0 -10 4 -7 8 2
4 0 14 -6 22 -8 13 -9 13 -6 0 4 -15 -38 -64 -45 -52 -2 4 -3 2 -1 -5 4 -18
-8 -24 -24 -10 -13 10 -14 9 -7 -3 6 -8 10 -18 10 -22 0 -3 4 -10 9 -15 5 -4
6 -3 2 4 -8 14 10 28 18 14 3 -5 -7 -21 -24 -34 -19 -16 -28 -31 -24 -41 3 -9
1 -16 -6 -16 -6 0 -8 5 -5 10 3 6 1 10 -4 10 -6 0 -11 -7 -11 -16 0 -8 -4 -13
-8 -10 -4 2 -8 -6 -8 -19 0 -14 2 -22 6 -19 3 3 5 11 5 16 0 6 6 13 13 16 8 2
10 -2 5 -15 -3 -10 -2 -15 2 -10 5 4 18 -1 29 -10 15 -14 18 -14 8 -2 -6 9 -8
20 -4 24 4 5 1 5 -6 0 -11 -6 -12 -3 -3 13 17 31 25 33 60 16 18 -9 35 -13 38
-10 4 3 1 6 -7 6 -10 0 -10 3 -1 14 8 10 9 16 1 21 -13 8 -13 25 1 25 5 0 8
-4 4 -9 -3 -5 0 -13 6 -17 6 -3 15 0 20 7 5 8 9 10 9 5 0 -5 7 -3 15 4 8 7 15
8 15 4 0 -5 10 -15 21 -23 22 -13 22 -13 -1 18 -12 18 -18 31 -13 30 21 -4 34
2 27 13 -4 7 -3 8 4 4 6 -4 9 -13 6 -21 -4 -8 -10 -12 -15 -9 -15 9 -10 -3 8
-17 10 -8 14 -9 10 -2 -4 7 2 18 15 27 13 10 17 16 9 16 -8 0 -12 3 -8 6 3 3
11 3 17 -1 8 -5 6 -13 -7 -28 -12 -15 -13 -18 -2 -9 9 6 19 10 22 7 4 -3 5 -2
2 2 -3 3 3 12 13 20 9 8 12 12 5 9 -6 -4 -15 -1 -19 6 -4 7 -4 10 1 6 4 -4 14
-3 21 3 8 7 14 6 20 -2 4 -7 3 -9 -3 -6 -11 7 -11 -29 1 -40 4 -5 7 -3 6 2 -1
6 -2 16 -1 24 1 11 4 11 18 0 14 -12 14 -10 -2 14 -10 15 -15 30 -11 34 3 3 6
0 6 -7 0 -11 2 -11 13 1 6 8 11 12 10 10 -2 -2 2 -10 9 -18 9 -11 7 -12 -8 -7
-11 4 -16 3 -11 -2 5 -5 25 -10 44 -10 24 -1 31 1 22 7 -11 7 -10 9 4 9 10 0
15 5 12 11 -5 7 -14 4 -26 -7 -18 -16 -19 -16 -19 1 0 10 3 15 7 12 3 -4 12
-2 19 3 14 12 48 -15 39 -31 -4 -5 -1 -9 5 -9 6 0 8 10 4 24 -3 13 -1 27 4 30
6 3 8 -2 5 -12 -2 -10 2 -24 10 -31 12 -9 18 -7 33 12 21 25 52 48 40 29 -4
-7 -2 -12 4 -12 6 0 8 -5 4 -11 -5 -8 -9 -8 -14 1 -5 8 -9 8 -13 -3 -7 -19 11
-17 43 6 22 15 21 22 -3 18 -5 -1 -5 4 -2 10 5 8 10 8 18 0 15 -15 30 -14 21
2 -5 8 -2 8 9 -2 16 -12 22 -8 18 12 -1 5 3 6 8 2 6 -3 7 -13 4 -23 -5 -14 -4
-15 8 -6 16 13 51 15 43 2 -3 -5 -9 -6 -14 -3 -5 3 -11 1 -14 -4 -4 -5 2 -8
11 -6 10 2 23 4 30 4 7 1 10 9 7 19 -5 15 -5 16 5 0 13 -19 48 -17 43 3 -2 8
0 10 5 6 4 -5 9 -13 9 -18 1 -5 2 -13 3 -19 0 -5 8 -10 17 -10 14 0 15 3 3 18
-7 9 -1 6 14 -7 36 -33 56 -35 50 -7 -3 12 -1 17 4 11 10 -13 43 -13 63 -1 12
8 13 7 3 -6 -13 -15 -8 -28 9 -28 5 0 7 4 3 9 -3 5 -1 12 4 15 18 11 5 -24
-15 -40 -10 -9 -1 -6 21 6 l40 22 -20 -23 -20 -23 29 18 c16 10 25 13 22 7 -9
-14 6 -15 20 -1 6 6 10 2 11 -12 1 -13 -1 -18 -5 -13 -10 14 -45 12 -49 -2 -2
-6 1 -14 6 -18 7 -3 8 0 5 10 -7 18 20 11 51 -14 18 -15 19 -15 6 2 -10 12
-10 17 -2 17 7 0 10 4 7 8 -3 5 1 9 8 9 7 0 13 -6 13 -13 0 -7 -5 -10 -11 -7
-6 3 -5 0 1 -7 15 -16 46 -23 37 -9 -3 5 -11 6 -17 2 -7 -3 -3 3 7 15 20 23
36 31 18 9 -15 -18 9 -49 29 -36 8 5 21 8 29 8 9 0 6 -5 -7 -11 -25 -12 -29
-23 -13 -33 6 -4 9 -1 8 5 -2 7 7 16 20 21 17 6 22 5 22 -7 0 -8 -4 -12 -10
-9 -5 3 -10 1 -10 -5 0 -7 6 -10 14 -7 18 7 34 -12 31 -36 -5 -26 -25 -48 -39
-40 -6 3 -7 2 -3 -2 11 -13 38 -15 31 -3 -4 7 -2 8 5 4 9 -6 9 -11 0 -22 -6
-7 -16 -11 -22 -7 -6 3 -7 1 -3 -6 5 -7 16 -9 28 -5 18 5 19 4 7 -9 -8 -8 -21
-12 -29 -9 -9 3 -8 -1 4 -10 19 -15 14 -44 -6 -32 -7 4 -8 2 -4 -5 6 -9 11 -9
24 1 13 11 15 10 9 -5 -4 -11 -3 -16 3 -12 6 4 9 -3 7 -17 -2 -13 -9 -23 -15
-23 -6 0 -13 -3 -17 -7 -9 -9 17 -5 33 5 7 5 10 13 7 18 -4 5 2 9 12 9 16 1
16 2 2 13 -26 20 -41 55 -27 63 7 4 8 3 4 -4 -4 -7 -2 -12 3 -12 6 0 11 5 11
12 0 6 3 8 6 5 4 -4 1 -13 -5 -21 -10 -11 -8 -17 9 -29 18 -13 20 -19 11 -36
-8 -13 -8 -27 -3 -38 5 -10 7 -25 4 -33 -5 -13 -3 -13 11 -1 18 14 24 36 8 27
-5 -3 -11 1 -15 9 -7 18 7 27 31 19 16 -5 16 -4 -2 10 -19 16 -19 16 5 13 13
-2 31 2 38 10 9 8 19 10 26 5 14 -11 56 -10 74 2 9 5 22 0 39 -15 l25 -24 -7
25 c-5 17 -4 22 3 15 5 -5 12 -19 14 -30 4 -18 6 -17 16 7 11 28 42 30 42 4 0
-7 11 -18 25 -24 14 -6 25 -17 25 -24 0 -9 -3 -9 -12 0 -15 15 -28 15 -28 1 0
-5 5 -7 12 -3 7 5 8 3 3 -6 -5 -9 -4 -11 3 -6 19 11 14 -5 -5 -21 -10 -8 -12
-11 -4 -7 10 5 12 3 6 -6 -5 -8 -4 -11 2 -7 5 3 10 0 11 -8 1 -8 3 -22 4 -30
1 -8 6 -11 12 -8 6 3 8 3 4 -2 -4 -4 -3 -14 3 -22 6 -7 8 -13 3 -13 -5 0 -2
-5 6 -11 10 -7 11 -9 2 -7 -8 2 -14 8 -15 13 -2 15 -21 33 -30 28 -4 -3 -3
-11 3 -18 8 -10 8 -15 -1 -21 -7 -4 -9 -3 -5 4 8 13 -28 35 -39 24 -5 -4 -5
-1 -1 6 4 6 2 12 -3 12 -6 0 -11 -5 -11 -12 0 -6 -3 -9 -6 -5 -3 3 -2 13 3 22
9 15 11 15 22 1 8 -9 18 -16 24 -16 5 0 3 8 -6 18 -10 10 -14 22 -10 27 5 4 1
6 -7 3 -10 -4 -15 2 -16 18 -2 23 6 28 34 25 17 -3 -3 31 -29 47 -15 10 -17 8
-16 -9 1 -13 6 -18 17 -14 11 5 12 3 3 -5 -8 -9 -16 -9 -30 -1 -14 8 -14 11
-3 11 13 0 13 1 0 10 -22 14 -26 12 -26 -10 0 -11 7 -22 16 -25 10 -3 16 -18
17 -40 0 -22 -3 -32 -10 -28 -6 4 -8 0 -4 -10 4 -11 2 -14 -9 -10 -7 3 -14 -1
-14 -8 0 -7 -3 -10 -6 -6 -4 3 3 17 14 32 20 25 20 65 0 65 -5 0 -7 -8 -4 -17
8 -24 -9 -47 -28 -40 -9 4 -21 -2 -31 -16 -8 -12 -15 -16 -15 -10 0 6 7 16 15
23 13 11 13 15 3 21 -19 13 -24 11 -26 -11 -4 -48 -5 -51 -16 -40 -7 7 -6 14
2 22 16 16 15 28 -3 28 -8 0 -14 -3 -14 -7 4 -22 -3 -32 -16 -27 -8 4 -15 10
-15 15 0 4 6 6 13 3 8 -3 13 4 14 17 2 17 -1 18 -13 9 -10 -9 -14 -9 -14 -1 0
6 5 11 10 11 6 0 10 5 10 10 0 6 -6 9 -12 8 -8 -2 -13 10 -13 32 0 22 5 34 13
32 14 -2 16 14 4 22 -5 3 -19 -6 -30 -19 -12 -14 -17 -25 -12 -25 6 0 10 -5
10 -12 0 -9 -3 -9 -12 0 -7 7 -17 12 -23 12 -5 -1 1 -9 13 -20 13 -11 25 -31
26 -45 3 -19 0 -23 -9 -15 -9 8 -12 4 -12 -15 0 -20 2 -23 13 -14 10 8 14 8
14 0 0 -6 -5 -11 -10 -11 -6 0 -9 -3 -8 -7 2 -5 -1 -9 -7 -10 -5 -2 -10 1 -10
7 0 15 -24 34 -32 25 -5 -4 -2 -10 5 -12 6 -3 12 -10 12 -16 0 -8 -4 -7 -12 1
-20 20 -32 13 -14 -7 17 -19 17 -19 -1 -17 -10 2 -24 -2 -32 -8 -11 -8 -13 -8
-7 1 4 7 3 13 -2 13 -13 0 -20 -68 -9 -79 6 -6 2 -8 -11 -4 -12 3 -19 10 -15
16 3 6 1 7 -6 3 -9 -6 -9 -11 -1 -21 6 -7 7 -21 3 -30 -4 -13 -3 -16 5 -11 8
5 10 1 5 -10 -4 -11 -8 -13 -11 -6 -2 7 -9 9 -14 6 -7 -5 -8 -2 -3 7 5 10 5
11 -3 4 -5 -5 -12 -19 -14 -30 -2 -11 -11 -19 -19 -17 -8 1 -3 -6 11 -17 24
-19 11 -24 -20 -7 -8 4 -5 -1 7 -12 19 -17 20 -21 7 -26 -23 -9 -31 -7 -16 3
11 7 11 9 -1 14 -19 7 -16 -21 4 -35 11 -8 10 -9 -3 -4 -10 3 -26 9 -35 12
-11 4 -14 3 -7 -3 15 -10 21 -46 10 -53 -5 -3 -10 3 -12 13 -1 11 -6 22 -9 25
-4 4 -5 -2 -3 -13 2 -12 -3 -20 -12 -20 -8 0 -15 -6 -15 -13 0 -7 -7 -17 -15
-23 -13 -9 -13 -9 0 -7 9 2 16 -1 17 -7 1 -5 -10 -8 -24 -7 -22 3 -24 2 -12
-11 8 -8 18 -12 23 -9 5 3 6 0 2 -7 -5 -7 -12 -9 -19 -3 -14 11 -47 12 -47 1
0 -13 18 -20 23 -9 3 6 4 5 3 -1 -3 -15 -43 -22 -51 -9 -3 6 -1 10 4 10 6 0
11 8 10 18 0 10 -3 12 -6 4 -2 -6 -10 -9 -15 -6 -7 5 -8 2 -3 -6 6 -9 4 -12
-7 -8 -8 4 -15 0 -15 -8 0 -7 4 -11 8 -9 3 3 13 -3 20 -13 13 -15 12 -16 -3
-3 -10 7 -18 10 -18 5 0 -5 -9 2 -20 16 -15 18 -18 20 -13 6 4 -14 3 -17 -6
-12 -7 5 -10 2 -9 -6 2 -7 -4 -12 -12 -10 -11 2 -11 -1 3 -12 16 -12 16 -14 2
-20 -9 -3 -13 -2 -10 3 3 6 -12 8 -35 6 -27 -3 -38 0 -34 7 4 7 2 8 -5 4 -18
-12 -2 -27 22 -21 12 2 16 2 9 -1 -6 -3 -9 -10 -6 -16 4 -6 -1 -6 -13 1 -11 6
-23 7 -27 4 -5 -6 -10 12 -7 30 2 14 -17 7 -23 -9 -4 -10 -2 -13 7 -8 6 4 9 4
5 -1 -4 -4 -3 -14 3 -21 7 -8 7 -14 -1 -19 -6 -4 -9 -1 -8 7 2 7 -3 12 -9 11
-7 -2 -12 2 -10 8 1 6 -3 13 -10 16 -8 3 -10 -5 -7 -24 3 -21 2 -24 -6 -13 -5
8 -10 11 -10 6 0 -5 -7 -2 -16 5 -15 12 -16 11 -10 -11 5 -18 4 -21 -3 -11
-10 16 -45 25 -35 10 3 -5 10 -6 16 -3 7 5 8 2 4 -5 -5 -7 -15 -10 -23 -6 -14
5 -14 3 -2 -11 13 -16 12 -16 -8 -6 -17 10 -22 9 -27 -4 -4 -12 -2 -15 9 -10
23 8 18 0 -11 -19 -15 -9 -23 -12 -20 -6 4 6 3 11 -3 11 -11 0 -25 -39 -17
-47 3 -4 6 1 6 11 0 9 5 14 10 11 6 -4 19 -1 28 7 16 12 16 11 2 -6 -14 -18
-13 -19 2 -13 11 4 17 2 15 -5 -2 -14 25 -18 34 -5 3 5 9 2 12 -6 4 -11 0 -15
-13 -12 -14 3 -17 -1 -13 -12 5 -12 3 -14 -7 -8 -9 6 -11 4 -5 -5 6 -10 10
-10 19 2 6 8 21 13 34 12 12 -2 22 1 22 7 0 5 -4 8 -9 4 -11 -6 -26 13 -17 22
8 9 45 -27 42 -40 -2 -7 -1 -9 1 -4 3 4 8 5 12 2 5 -2 17 2 27 10 18 13 18 14
-3 12 -12 0 -19 -5 -16 -11 3 -5 1 -6 -6 -2 -6 4 -9 11 -6 16 3 4 -1 10 -7 13
-7 2 2 4 20 3 17 0 32 -4 32 -9 0 -4 5 -5 11 -1 7 4 7 -2 -1 -17 -7 -13 -9
-21 -5 -17 5 4 14 3 22 -3 8 -8 13 -8 13 -1 0 6 -5 12 -10 14 -6 2 -1 11 10
20 11 10 20 13 20 7 0 -8 4 -8 13 -2 15 12 47 13 47 1 0 -4 5 -8 11 -8 5 0 7
6 4 12 -4 7 3 2 14 -11 12 -13 21 -20 21 -17 0 4 9 2 20 -4 12 -6 18 -16 14
-23 -4 -7 -3 -8 2 -4 5 5 9 14 9 20 0 5 6 12 14 15 9 3 11 0 5 -9 -7 -12 -5
-12 9 0 9 7 17 10 17 5 0 -5 4 -4 8 1 10 14 55 39 47 26 -9 -15 8 -14 24 2 11
9 13 9 7 0 -4 -8 -2 -13 5 -13 10 0 10 -3 1 -12 -7 -7 -12 -16 -12 -21 0 -5 9
1 19 14 14 17 16 26 8 31 -7 4 -2 6 10 5 12 0 20 -4 17 -8 -8 -14 11 -17 36
-6 37 15 50 16 50 6 0 -6 5 -7 12 -3 6 4 8 3 5 -3 -4 -6 -18 -9 -32 -8 -14 2
-25 -1 -25 -7 0 -5 10 -8 23 -6 16 2 22 -2 21 -14 -1 -10 3 -15 8 -12 5 3 7
12 4 19 -2 7 2 16 10 19 24 9 31 7 14 -4 -11 -7 -11 -10 -2 -10 8 0 10 -5 6
-12 -4 -8 -3 -10 2 -5 5 5 10 13 10 18 1 5 2 14 3 20 0 5 6 7 11 4 6 -4 18 -1
27 7 9 7 14 8 10 2 -4 -7 5 -11 23 -12 17 0 30 5 30 11 0 8 3 8 8 2 11 -16 52
-18 70 -3 9 7 13 8 9 2 -4 -7 0 -15 9 -18 12 -4 15 -2 10 9 -3 8 -1 15 4 15 6
0 10 -7 10 -15 0 -8 6 -12 15 -9 8 3 20 2 27 -2 20 -13 61 -13 48 0 -15 15
-12 25 8 21 9 -1 24 3 32 9 13 10 13 9 1 -6 -7 -10 -18 -15 -24 -11 -6 3 -7 1
-3 -5 4 -6 13 -9 21 -5 14 5 20 -7 16 -30 -1 -5 3 -6 9 -2 7 4 7 12 0 26 -6
10 -8 20 -5 20 26 6 54 3 73 -8 19 -12 22 -11 22 1 0 8 4 17 9 20 5 3 8 -2 7
-12 0 -9 5 -16 12 -15 6 2 12 -2 12 -7 0 -6 5 -10 11 -10 8 0 8 5 -1 15 -7 8
-17 12 -23 8 -6 -3 -7 -1 -3 5 5 9 13 9 29 0 34 -18 56 -17 84 5 l26 20 -11
-20 c-10 -18 -8 -20 11 -19 12 0 22 -4 22 -11 0 -6 4 -15 8 -20 5 -4 8 -3 7 2
-4 18 0 35 8 34 22 -4 31 3 26 19 -5 16 -5 16 6 -1 6 -9 16 -14 22 -11 7 4 8
2 4 -5 -4 -6 -12 -9 -17 -6 -5 4 -9 1 -9 -4 0 -14 17 -14 25 -1 4 6 11 8 16 5
5 -3 6 0 3 8 -3 8 3 20 13 28 16 12 17 12 6 -2 -13 -16 -8 -29 9 -29 5 0 6 5
2 12 -5 7 -3 8 6 3 10 -6 9 -11 -5 -22 -11 -7 -14 -13 -8 -13 7 0 14 4 17 8 3
5 22 9 42 10 20 1 39 4 42 7 3 3 13 -2 23 -11 23 -21 43 -10 29 16 -7 12 -17
17 -28 14 -14 -5 -15 -4 -2 5 10 7 19 6 30 -3 8 -7 22 -11 30 -9 12 4 12 3 2
-5 -11 -7 -11 -10 3 -15 11 -5 14 -3 9 5 -5 8 -2 9 10 5 10 -4 15 -3 11 3 -3
6 -2 10 3 10 19 0 21 -14 5 -34 -18 -21 -18 -21 4 -2 17 14 20 22 12 32 -7 9
-5 15 8 23 11 6 13 11 5 11 -7 0 -10 5 -6 12 4 6 3 8 -4 4 -6 -3 -17 2 -24 11
-16 23 -55 53 -44 35 4 -6 3 -12 -3 -12 -6 0 -8 -6 -5 -14 7 -18 -12 -30 -22
-15 -4 7 -3 9 3 6 6 -4 11 4 11 18 0 14 -4 25 -9 25 -5 0 -9 -5 -9 -12 0 -6
-3 -8 -6 -5 -4 4 -1 14 7 23 13 16 12 16 -18 0 -20 -10 -33 -12 -33 -6 0 6 -4
9 -9 5 -6 -3 -8 9 -6 27 l4 33 -17 -32 c-17 -35 -29 -42 -29 -18 0 8 4 12 9 9
4 -3 8 0 8 5 0 6 -9 12 -20 12 -39 3 -45 5 -42 17 1 8 -7 7 -25 -5 -17 -10
-23 -11 -15 -3 6 8 12 19 12 25 0 6 -3 7 -8 0 -4 -5 -15 -16 -25 -24 -16 -12
-18 -12 -15 0 2 8 -3 13 -10 11 -8 -1 -11 2 -7 8 5 8 11 8 20 0 10 -8 15 -8
21 2 4 7 4 10 -1 6 -4 -4 -14 -3 -21 2 -8 8 -17 6 -28 -5 -9 -9 -16 -13 -16
-8 0 5 5 14 12 21 9 9 9 12 -1 12 -7 0 -9 5 -5 12 4 7 3 8 -5 4 -6 -4 -9 -11
-6 -16 6 -9 -25 -23 -33 -15 -3 3 0 5 6 5 7 0 12 5 12 10 0 7 -8 6 -22 -1 -22
-12 -22 -11 -8 6 9 11 10 16 3 11 -7 -4 -13 -2 -13 3 0 6 5 11 12 11 6 0 8 3
5 6 -9 9 -38 -16 -31 -27 3 -5 -3 -6 -12 -2 -11 4 -13 8 -6 11 7 2 12 8 12 13
0 6 -4 7 -10 4 -5 -3 -10 1 -10 10 0 9 5 13 10 10 6 -3 10 -2 10 4 0 5 -9 9
-19 8 -11 0 -18 -4 -15 -8 2 -4 0 -10 -5 -14 -6 -3 -8 3 -6 15 3 18 -6 25 -28
21 -5 -1 -6 3 -2 9 3 6 12 7 18 4 7 -4 9 -4 5 1 -4 4 -2 15 5 23 9 12 6 12
-14 -1 -21 -14 -26 -15 -26 -2 0 8 4 12 8 9 4 -2 11 0 14 6 4 6 1 9 -5 8 -7
-2 -14 5 -15 15 -4 22 -15 36 -15 19 0 -7 -8 -12 -17 -12 -10 0 -14 4 -8 8 13
9 15 52 2 49 -5 -1 -12 4 -15 12 -3 9 0 11 8 6 8 -5 11 -4 6 3 -4 6 -13 9 -20
6 -10 -4 -13 3 -10 25 2 17 -1 31 -6 31 -5 0 -7 -9 -5 -20 2 -11 0 -22 -5 -25
-4 -3 -6 11 -4 30 2 28 0 33 -14 29 -10 -4 -13 -2 -7 3 14 12 17 33 4 33 -5 0
-7 5 -4 10 4 6 -1 22 -9 35 -9 14 -12 25 -7 25 6 0 14 -8 20 -18 9 -15 10 -14
8 5 0 12 -3 20 -5 18 -8 -8 -42 15 -41 28 0 9 2 9 6 0 2 -7 11 -13 19 -13 10
0 6 9 -12 25 -22 20 -24 27 -14 40 7 8 10 22 6 30 -3 8 0 15 7 15 9 0 8 3 -1
9 -8 4 -13 11 -13 15 1 3 -1 6 -4 6 -28 0 -29 -1 -15 -11 12 -8 12 -10 1 -7
-8 2 -15 11 -17 20 -1 11 3 15 14 11 11 -5 13 -3 7 8 -6 9 1 7 20 -5 30 -19
30 -19 15 0 -8 10 -19 22 -25 26 -7 5 -7 8 0 9 6 1 23 3 39 5 15 1 31 6 35 10
3 4 -3 5 -14 2 -26 -6 -52 17 -29 26 8 3 13 10 10 14 -3 5 1 9 9 9 13 0 12 -4
-2 -19 -16 -17 -15 -18 8 -15 15 3 24 11 24 22 0 10 8 19 18 21 9 1 15 -2 11
-7 -3 -5 -10 -6 -16 -3 -7 4 -8 2 -4 -4 4 -6 14 -8 23 -5 11 4 14 3 9 -5 -4
-7 -2 -12 4 -12 7 0 10 6 7 13 -7 19 8 43 17 28 4 -6 2 -11 -4 -11 -6 0 -8 -5
-5 -10 5 -8 11 -8 20 0 10 8 15 8 21 -1 5 -8 3 -9 -6 -4 -8 5 -11 4 -6 -3 4
-6 13 -9 21 -6 8 4 12 11 8 17 -3 6 -1 7 6 3 9 -6 9 -11 0 -22 -14 -17 2 -19
18 -3 14 14 34 3 27 -15 -3 -7 2 -21 12 -30 12 -12 14 -20 6 -28 -6 -6 -8 -18
-5 -27 4 -14 3 -14 -7 -1 -10 13 -11 13 -6 -2 3 -10 0 -18 -6 -18 -7 0 -4 -6
5 -12 9 -7 27 -28 41 -46 19 -26 25 -29 30 -17 4 11 2 14 -6 9 -7 -5 -8 -3 -3
6 6 9 4 11 -6 5 -12 -8 -12 -6 0 8 7 9 16 17 19 17 3 0 2 -3 -1 -7 -8 -8 11
-33 25 -33 6 0 4 8 -3 18 -11 14 -10 13 9 -2 28 -24 28 -25 -3 -22 -13 2 -22
-1 -19 -5 3 -5 19 -9 35 -9 18 0 28 -4 24 -10 -4 -6 -12 -7 -18 -4 -7 4 -8 3
-4 -1 17 -20 35 -13 31 11 -2 13 0 24 6 24 5 0 9 -3 9 -7 -4 -22 3 -33 19 -33
14 0 15 2 2 10 -8 5 -10 10 -4 10 15 0 36 -25 27 -33 -3 -4 -2 -7 4 -7 6 0 14
7 17 16 3 8 11 12 16 9 6 -4 9 -1 8 7 -2 7 4 12 12 10 8 -2 11 0 7 5 -5 4 -14
8 -20 8 -5 0 -12 7 -14 15 -4 12 -3 12 5 1 7 -9 12 -10 16 -2 4 6 4 11 0 11
-4 0 1 9 10 19 18 20 13 47 -6 35 -7 -4 -6 -9 2 -14 9 -5 8 -9 -2 -12 -9 -4
-14 4 -15 24 0 17 2 26 6 20 4 -6 15 -3 30 9 13 10 19 19 14 19 -5 0 -13 -4
-19 -10 -6 -6 -15 -6 -24 0 -13 8 -12 10 2 10 10 0 22 10 29 21 8 15 8 19 0
15 -6 -4 -11 -3 -11 3 0 5 5 13 10 16 6 4 7 12 3 18 -4 7 0 6 10 -2 14 -11 20
-11 35 0 9 8 20 19 25 26 9 14 42 9 65 -9 13 -11 14 -11 7 2 -5 8 -10 22 -12
30 -1 11 2 10 12 -3 8 -11 21 -17 32 -14 15 4 15 5 2 6 -23 1 -31 27 -9 27 10
0 16 -4 14 -8 -5 -8 10 -12 35 -9 8 2 10 -2 5 -10 -4 -8 -3 -10 4 -5 6 4 8 14
5 23 -5 12 -3 14 8 9 8 -4 5 0 -5 8 -31 25 -2 19 30 -6 16 -12 23 -15 17 -7
-7 9 -9 20 -5 24 4 5 2 5 -4 2 -7 -4 -18 1 -25 11 -13 15 -12 16 4 3 14 -11
17 -11 17 0 0 11 2 11 10 -1 9 -13 11 -13 20 0 6 10 10 11 10 3 0 -14 35 -12
47 2 5 4 2 5 -4 1 -8 -4 -13 -2 -13 6 0 9 -3 9 -10 -2 -5 -8 -10 -10 -10 -5 0
6 10 19 22 29 19 16 20 17 15 1 -5 -11 -3 -15 5 -12 7 2 12 10 10 17 -2 7 13
3 35 -10 21 -12 30 -15 20 -7 -14 12 -15 16 -4 26 8 6 16 8 20 5 3 -3 10 4 17
15 6 12 15 19 20 16 6 -3 7 0 4 8 -6 16 21 42 45 42 9 0 15 8 15 18 -1 10 3
16 10 14 6 -3 10 -10 8 -16 -1 -7 2 -10 8 -6 6 4 7 12 1 24 -6 11 -6 22 0 32
8 11 9 10 7 -5 -2 -10 3 -21 10 -23 8 -3 10 1 5 13 -5 13 -3 15 8 9 11 -7 12
-6 3 6 -6 8 -8 23 -5 33 7 17 8 17 14 3 3 -8 1 -18 -6 -21 -7 -2 -1 -3 13 -1
14 2 29 4 34 4 5 1 3 8 -4 16 -10 12 -10 15 1 15 8 0 5 6 -7 14 -10 8 -16 18
-11 22 4 4 7 2 7 -4 0 -7 5 -12 11 -12 5 0 8 4 5 9 -9 14 20 21 35 8 11 -10
11 -9 0 5 -7 10 -16 16 -20 14 -4 -3 -13 0 -21 6 -12 8 -12 9 2 4 10 -3 20 0
24 6 4 7 10 6 16 -3 8 -11 9 -11 5 1 -2 8 -11 14 -20 12 -8 -1 -18 2 -22 8 -4
6 1 7 11 3 12 -5 15 -3 9 6 -6 10 -3 11 13 2 17 -9 19 -8 15 9 -3 11 -9 17
-14 14 -5 -3 -9 0 -9 6 0 8 10 10 28 6 15 -3 21 -3 14 0 -6 3 -9 11 -6 16 4 7
2 8 -4 4 -8 -5 -10 -1 -5 10 4 10 2 15 -3 11 -6 -3 -11 4 -11 16 -2 15 0 18 6
8 13 -20 18 -2 17 55 -1 40 2 50 12 46 11 -4 11 -6 0 -13 -9 -6 -9 -9 -1 -9 6
0 14 4 18 9 7 12 -24 43 -35 36 -4 -3 -6 4 -3 15 3 11 9 20 14 20 5 0 6 -6 3
-14 -4 -10 0 -14 13 -12 10 2 19 11 20 22 3 18 2 18 -6 -1 -9 -19 -10 -19 -10
3 -1 13 -5 21 -10 17 -6 -3 -8 4 -6 15 2 11 -2 20 -8 20 -8 0 -8 3 1 9 15 9
15 17 1 42 -6 13 -4 16 12 15 11 0 23 -7 28 -14 7 -11 9 -10 14 3 4 9 3 14 -1
12 -4 -3 -16 5 -27 16 -11 11 -14 16 -6 12 11 -6 13 -4 8 8 -4 11 -2 14 7 11
8 -3 17 -1 21 5 3 6 -2 11 -12 12 -14 0 -13 2 5 10 15 5 21 13 16 21 -4 7 -4
10 1 6 4 -4 14 0 22 8 8 8 19 11 25 8 6 -4 6 2 -1 14 -6 12 -16 24 -22 27 -7
5 -6 11 2 21 6 8 9 17 5 21 -3 3 -6 1 -6 -6 0 -7 -4 -10 -9 -7 -11 7 -9 -13 2
-31 5 -8 4 -13 -2 -13 -6 0 -12 5 -12 10 -1 6 -3 15 -4 20 -1 6 -3 17 -4 25 0
8 -6 15 -12 15 -5 0 -7 -5 -3 -12 4 -7 3 -8 -5 -4 -6 4 -9 11 -6 16 5 8 -54
37 -67 32 -5 -1 -8 4 -8 10 -1 7 -10 2 -20 -11 -22 -25 -26 -21 -10 9 7 13 7
21 -2 26 -6 4 -8 3 -4 -4 7 -12 -4 -21 -33 -27 -15 -3 -18 2 -15 25 3 21 -3
33 -18 45 -29 19 -39 19 -31 -1 5 -14 3 -13 -15 2 -25 21 -27 25 -9 18 9 -3
13 4 13 20 0 14 -3 23 -7 20 -9 -5 -32 23 -26 33 3 4 -6 9 -19 9 l-24 2 23
-19 c12 -10 18 -18 14 -19 -4 0 -17 9 -29 20 -12 10 -24 17 -29 15 -14 -10 -3
24 17 47 l19 22 -29 -22 c-16 -12 -33 -22 -39 -22 -6 0 -2 7 9 15 10 8 15 15
9 15 -5 0 -3 5 5 11 13 9 13 10 0 6 -8 -2 -14 -9 -13 -14 1 -5 -5 -10 -13 -10
-12 0 -12 3 1 23 11 17 12 25 3 30 -6 4 -8 3 -5 -3 4 -6 -3 -19 -15 -29 -12
-11 -18 -13 -14 -6 12 20 15 62 4 56 -5 -3 -7 -12 -4 -20 3 -8 -1 -14 -10 -14
-11 0 -14 6 -8 23 l7 22 -23 -20 -23 -20 12 22 c13 26 14 45 1 21 -6 -10 -18
-14 -30 -11 -16 4 -20 12 -17 33 3 18 0 27 -9 27 -8 0 -14 -4 -14 -9 0 -10
-23 -6 -32 6 -12 17 -37 15 -31 -2 3 -10 1 -13 -4 -7 -4 6 -12 11 -18 11 -5 1
-21 5 -34 9 -15 5 -21 4 -17 -3 3 -6 2 -14 -4 -17 -6 -4 -9 -1 -8 7 2 8 -4 12
-14 10 -10 -2 -18 0 -18 4 0 4 8 13 18 21 15 13 15 13 -5 4 -28 -14 -36 -14
-27 1 4 7 3 8 -5 4 -9 -6 -8 -14 5 -34 17 -27 17 -27 -3 -9 -11 9 -23 17 -28
17 -4 0 -1 -8 6 -17 13 -16 12 -17 -4 -4 -13 11 -15 17 -6 28 7 7 9 16 5 20
-3 3 -6 2 -6 -4 0 -11 -47 -28 -64 -24 -5 1 -6 -6 -2 -16 5 -16 5 -16 -6 -2
-8 10 -25 15 -45 13 -18 -1 -33 2 -33 7 0 6 5 7 10 4 6 -3 10 0 10 7 0 9 3 9
10 -2 8 -13 10 -13 10 1 0 9 -7 20 -16 23 -9 4 -13 2 -8 -5 4 -7 1 -10 -7 -7
-8 3 -13 11 -11 17 1 7 -2 9 -8 6 -6 -4 -9 -13 -6 -21 3 -7 0 -16 -6 -20 -6
-4 -8 -3 -4 4 3 6 2 13 -4 17 -6 4 -7 11 -4 17 4 7 2 8 -4 4 -6 -4 -9 -14 -6
-24 3 -9 -4 -1 -16 18 -18 31 -20 32 -18 10 2 -14 8 -28 13 -32 6 -5 6 -8 -1
-8 -6 0 -17 7 -24 15 -7 8 -9 15 -5 15 4 0 2 7 -5 15 -13 16 -35 10 -24 -6 3
-5 10 -7 15 -4 5 4 6 -2 2 -11 -4 -11 -8 -13 -11 -6 -2 7 -8 10 -12 7 -5 -3
-7 9 -5 27 3 24 2 29 -5 18 -9 -13 -11 -13 -19 0 -6 8 -13 11 -17 7 -4 -4 -17
1 -28 10 -20 17 -20 17 -7 1 11 -15 11 -18 0 -20 -8 0 -21 -2 -29 -3 -21 -2
-52 14 -45 25 3 5 2 11 -3 14 -4 2 -8 -6 -8 -19 0 -13 3 -22 7 -19 4 2 11 -1
15 -7 4 -7 3 -9 -4 -5 -6 3 -13 2 -17 -4 -3 -5 -2 -10 3 -10 5 0 9 -6 9 -14 0
-15 -21 -16 -34 -1 -4 4 -3 5 4 1 8 -4 11 1 10 14 -2 26 -13 26 -20 0 -3 -11
3 -29 14 -41 11 -12 17 -25 14 -28 -4 -3 -10 1 -15 9 -7 12 -9 10 -8 -6 1 -13
9 -20 22 -19 12 0 21 -4 21 -10 0 -5 -4 -9 -8 -7 -5 1 -6 -2 -2 -8 3 -6 11 -7
17 -4 8 5 9 1 5 -10 -6 -14 -4 -15 16 -5 29 15 37 24 14 16 -12 -5 -16 -3 -11
5 4 6 3 8 -3 5 -5 -3 -10 0 -10 8 0 16 13 20 19 7 2 -4 18 -19 37 -32 32 -22
34 -22 28 -4 -7 18 -7 18 8 -1 14 -17 17 -18 26 -5 9 12 10 12 5 -4 -4 -12 -2
-17 7 -13 7 3 20 0 29 -7 14 -10 14 -14 2 -30 -8 -11 -19 -16 -30 -12 -13 5
-14 9 -5 20 10 11 7 14 -14 12 -18 -1 -24 -5 -20 -16 3 -8 -2 -6 -11 5 -15 20
-15 20 -30 1 -8 -11 -14 -14 -14 -7 0 7 -4 9 -10 6 -5 -3 -10 -2 -10 4 0 5
-10 11 -22 13 -13 2 -22 9 -20 16 1 8 -2 11 -8 7 -8 -5 -7 -11 1 -21 7 -9 8
-14 1 -14 -6 0 -14 -9 -17 -20 -4 -11 -11 -18 -16 -15 -5 4 -9 1 -9 -4 0 -6 5
-11 11 -11 5 0 7 -4 4 -10 -3 -5 3 -15 14 -22 16 -10 18 -15 8 -27 -9 -11 -9
-13 0 -8 6 4 13 2 15 -5 3 -7 7 -5 11 6 4 10 3 15 -3 11 -5 -3 -7 0 -4 9 3 9
-2 17 -14 20 -30 10 -12 67 22 72 9 1 14 -2 10 -7 -3 -5 -9 -7 -13 -5 -4 3
-12 -4 -19 -15 -8 -12 -9 -19 -1 -19 5 0 7 -4 4 -10 -6 -9 7 -14 27 -11 4 0 4
-7 1 -16 -5 -12 -3 -14 8 -8 11 6 12 5 2 -6 -19 -20 -16 -34 4 -18 11 10 14
10 9 2 -4 -8 -1 -13 9 -13 9 0 14 4 10 9 -3 5 -1 12 4 15 11 7 9 -13 -2 -31
-10 -16 5 -17 21 -1 9 9 12 9 12 -1 0 -7 4 -9 10 -6 6 4 7 -1 3 -12 -6 -16 -5
-16 10 -5 19 16 39 8 30 -13 -3 -8 0 -15 7 -15 6 0 9 4 5 9 -3 5 -1 12 5 16 5
3 10 0 10 -8 0 -20 20 -26 48 -16 15 6 21 13 16 21 -4 7 -3 9 1 5 12 -10 15
-38 4 -31 -15 9 -10 -6 8 -24 16 -16 16 -16 10 1 -5 13 -3 17 5 14 7 -2 12
-10 10 -16 -1 -7 2 -10 8 -6 6 3 8 10 5 15 -3 5 0 12 6 16 7 4 9 3 5 -4 -3 -6
-1 -14 5 -18 8 -4 7 -9 -2 -15 -8 -5 -9 -9 -3 -9 5 0 20 9 32 20 12 12 22 16
22 9 0 -6 7 -9 18 -5 15 5 15 5 -1 -8 -15 -12 -17 -18 -7 -33 10 -16 11 -16 6
0 -5 15 0 19 20 16 4 0 11 5 15 13 7 10 9 10 9 0 0 -7 5 -10 10 -7 6 4 9 1 8
-7 -2 -7 4 -12 14 -10 9 1 20 -3 24 -9 4 -8 3 -9 -4 -5 -7 4 -20 3 -29 -3 -14
-8 -12 -9 14 -6 19 2 36 -2 44 -11 6 -7 16 -11 23 -7 19 12 37 12 29 0 -13
-21 -11 -35 3 -33 19 3 42 26 27 26 -6 0 -13 -5 -15 -12 -3 -8 -6 -9 -11 -1
-3 5 4 15 17 21 20 9 24 8 21 -6 -1 -9 3 -21 9 -25 7 -6 4 -7 -6 -3 -11 3 -18
0 -18 -8 0 -15 16 -16 40 -1 9 5 8 0 -4 -13 -11 -12 -26 -21 -34 -20 -8 2 -17
-3 -19 -9 -3 -7 1 -13 9 -13 10 0 9 -3 -2 -11 -12 -9 -11 -10 6 -6 11 2 21 -1
21 -7 0 -6 -10 -11 -23 -11 -12 0 -22 2 -22 5 1 17 -3 30 -11 30 -4 0 -7 -11
-6 -25 2 -14 -1 -23 -5 -20 -5 3 -6 13 -3 22 4 11 3 14 -5 9 -15 -9 -16 6 -2
22 6 6 7 10 4 7 -4 -3 -14 1 -22 8 -13 9 -14 9 -8 0 4 -8 2 -13 -5 -13 -8 0
-7 -5 2 -17 13 -15 12 -15 -8 -2 -13 8 -23 17 -23 22 0 4 4 6 8 3 5 -3 9 1 9
9 0 18 -13 20 -20 3 -4 -10 -8 -9 -16 2 -8 11 -11 12 -11 2 0 -7 -5 -10 -11
-6 -7 4 -6 -2 1 -17 l13 -24 -23 20 c-20 17 -23 18 -17 3 6 -16 -6 -23 -34
-20 -4 1 -5 -8 -2 -18 3 -11 13 -20 22 -21 11 0 9 -3 -6 -9 -25 -10 -30 -19
-10 -16 6 0 13 -3 14 -7 3 -12 26 -33 43 -40 13 -5 13 -6 0 -6 -9 -1 -21 4
-28 11 -7 7 -12 9 -12 5 0 -4 10 -17 22 -29 14 -14 17 -23 10 -26 -9 -3 -8 -8
2 -18 19 -19 32 -18 16 1 -7 8 -8 15 -4 15 5 0 15 -9 22 -20 7 -12 18 -18 25
-13 13 8 -12 -28 -28 -39 -7 -5 -6 -8 0 -8 6 0 16 5 21 10 13 13 12 -18 -1
-40 -7 -12 -6 -13 7 -3 8 7 19 9 24 5 4 -4 2 2 -6 12 -8 11 -10 17 -3 13 6 -4
14 -1 17 5 3 7 4 4 3 -7 -1 -11 3 -20 10 -20 20 0 28 -16 13 -26 -13 -8 -13
-10 0 -18 8 -5 18 -7 24 -4 5 3 6 1 2 -5 -4 -6 -13 -9 -21 -6 -10 4 -13 0 -11
-13 3 -14 -2 -18 -18 -18 -12 1 -27 5 -34 9 -8 5 -10 2 -6 -8 4 -11 0 -13 -18
-10 l-23 5 23 -11 c13 -5 29 -7 35 -4 7 3 4 -1 -6 -9 -10 -9 -25 -24 -33 -34
-14 -17 -14 -17 -5 4 8 16 7 22 -5 27 -8 3 -12 2 -9 -4 3 -6 -2 -10 -12 -10
-15 0 -16 -2 -3 -10 9 -6 10 -10 3 -10 -7 0 -17 8 -22 17 -6 10 -11 13 -11 7
0 -7 -9 -14 -20 -17 -11 -3 -20 -12 -20 -21 0 -9 -4 -16 -10 -16 -13 0 -13 6
0 30 7 13 7 21 0 25 -6 4 -10 3 -9 -2 6 -33 -31 -51 -55 -27 -8 8 -19 14 -25
14 -5 0 -13 9 -16 20 -6 19 -17 25 -39 21 -4 -1 -14 4 -22 10 -8 7 -17 9 -21
5 -3 -3 -1 -6 5 -6 17 0 5 -23 -19 -38 -12 -8 -18 -9 -15 -4 3 6 -1 13 -10 16
-8 3 -12 2 -9 -4 3 -6 -1 -10 -9 -10 -8 0 -18 5 -22 12 -4 7 -3 8 4 4 7 -4 12
-2 12 4 0 7 -6 10 -14 7 -17 -7 -39 16 -28 29 4 4 -1 2 -10 -5 -17 -12 -16
-37 1 -27 4 3 12 -4 19 -14 9 -14 9 -21 0 -26 -7 -4 -8 -3 -4 4 4 7 -3 17 -18
24 -28 12 -33 27 -14 46 9 9 9 12 1 12 -7 0 -14 -9 -18 -19 -4 -13 -13 -18
-25 -16 -11 2 -22 0 -25 -6 -4 -5 -12 -9 -18 -9 -7 0 -6 4 3 10 8 5 13 10 10
11 -3 0 -13 2 -22 4 -10 2 -18 -1 -18 -6 0 -4 -8 -5 -17 -2 -15 6 -14 7 3 13
10 4 26 6 36 5 16 -3 19 17 4 32 -4 4 -6 2 -4 -6 3 -15 -50 -23 -58 -9 -3 5
-2 7 3 6 5 -2 20 7 33 20 18 16 20 21 7 16 -12 -4 -17 -2 -15 7 2 9 -4 13 -14
11 -10 -2 -18 2 -18 8 0 5 10 10 23 10 17 0 19 2 7 9 -8 6 -18 7 -24 4 -5 -3
-6 -1 -2 6 4 6 12 9 17 6 5 -4 9 -1 9 4 0 6 -4 11 -10 11 -5 0 -10 5 -10 11 0
5 4 8 9 4 5 -3 13 0 17 7 4 7 3 10 -1 5 -10 -8 -45 21 -45 37 0 6 5 3 11 -7 5
-9 17 -17 26 -17 14 0 14 2 -3 16 -10 8 -13 13 -7 9 9 -4 11 -1 7 9 -3 9 -9
14 -13 12 -3 -2 -15 6 -26 17 -11 11 -14 17 -8 13 16 -9 53 -16 53 -11 0 3
-12 11 -27 19 -21 12 -23 15 -8 13 11 -1 27 -7 35 -12 10 -5 9 -1 -3 12 -12
13 -15 23 -8 27 7 5 7 13 -1 26 -7 10 -15 17 -19 14 -16 -9 -18 14 -3 32 14
18 14 17 4 -6 -10 -22 -10 -23 3 -8 8 10 18 14 23 10 4 -4 2 1 -5 10 -7 10
-11 24 -8 33 4 8 0 30 -8 48 -8 19 -11 37 -8 41 4 3 -2 13 -13 21 -14 11 -15
14 -3 9 10 -3 20 -1 23 5 4 6 14 8 24 5 14 -5 15 -4 2 5 -8 6 -24 8 -35 5 -15
-4 -16 -3 -6 4 11 8 11 11 0 16 -8 3 -4 4 9 2 15 -3 22 0 19 7 -2 7 -13 11
-23 9 -15 -2 -16 -1 -5 7 13 8 13 12 0 27 -9 11 -9 15 -1 10 8 -5 12 0 12 14
0 12 -4 18 -10 15 -5 -3 -10 -1 -10 5 0 6 6 10 13 9 25 -3 35 1 41 17 5 13 4
14 -7 6 -8 -7 -17 -9 -20 -5 -10 9 -9 25 1 19 5 -3 9 2 9 10 0 9 -6 13 -14 10
-8 -3 -12 -2 -8 3 3 5 -1 12 -7 15 -7 4 -3 4 9 2 13 -2 26 0 29 5 3 5 2 8 -3
7 -4 -2 -9 2 -10 7 -2 6 1 10 6 10 5 0 12 3 16 7 4 4 -8 5 -26 3 -19 -2 -28
-1 -21 2 6 2 9 10 5 16 -4 6 0 8 10 4 22 -8 22 2 0 20 -10 8 -12 12 -5 8 17
-9 15 10 -3 25 -8 7 -15 18 -15 24 0 6 5 4 10 -4 6 -10 10 -11 10 -2 0 6 5 12
11 12 8 0 8 -5 -1 -15 -9 -10 -9 -15 -1 -15 11 0 15 13 12 38 -1 6 3 12 9 12
5 0 10 4 10 9 0 6 -9 8 -19 6 -11 -2 -27 3 -38 11 -17 14 -16 14 5 4 24 -12
30 -2 10 18 -9 9 -9 12 0 12 6 0 16 -8 21 -17 6 -10 11 -13 11 -7 0 6 -3 14
-7 18 -6 6 -9 20 -15 63 -2 18 -11 7 -15 -18 -2 -12 1 -18 7 -14 5 3 10 4 10
1 0 -3 -9 -10 -20 -16 -18 -10 -19 -8 -11 13 7 18 5 28 -6 39 -12 12 -12 17
-2 23 7 5 10 4 5 -3 -3 -6 -2 -13 4 -17 6 -3 12 1 15 9 19 61 19 59 -1 62 -9
2 -22 8 -28 15 -8 9 -6 9 12 0 19 -10 22 -9 22 8 0 13 5 19 14 15 8 -3 16 -1
19 4 3 4 -9 8 -28 7 -19 -1 -32 2 -29 7 3 4 10 5 16 2 7 -5 9 -1 5 9 -3 9 -1
19 5 23 7 4 3 13 -10 23 -19 14 -19 18 -6 35 10 14 14 16 14 5 0 -12 2 -12 10
1 13 20 13 4 0 -21 -7 -13 -7 -19 0 -19 5 0 10 5 10 11 0 5 4 7 10 4 6 -4 7 1
3 12 -6 16 -5 16 10 4 13 -10 15 -17 6 -27 -14 -17 -3 -18 15 -2 10 10 9 16
-6 32 -10 11 -18 24 -18 29 0 5 9 -2 21 -17 11 -14 25 -24 30 -21 16 11 10 -7
-8 -22 -16 -13 -14 -14 21 -10 35 3 36 2 20 -11 -18 -14 -18 -14 4 -9 15 3 25
0 29 -9 3 -8 10 -11 16 -7 6 3 7 1 3 -5 -4 -6 -13 -9 -21 -6 -8 4 -12 10 -9
15 3 5 -3 6 -12 2 -11 -4 -13 -8 -6 -11 7 -2 9 -9 6 -14 -4 -7 -2 -8 5 -4 6 4
18 0 27 -8 8 -9 20 -16 27 -16 6 0 3 6 -5 13 -16 11 -16 13 0 27 14 13 15 12
9 -3 -3 -9 -2 -17 3 -17 6 0 10 6 10 13 0 9 3 8 9 -2 5 -7 14 -11 20 -7 7 5 8
1 4 -11 -6 -16 -5 -16 10 -4 9 7 17 10 17 5 0 -5 4 -3 9 5 5 8 11 9 15 3 3 -6
-3 -13 -14 -17 -22 -7 -26 -20 -10 -30 6 -4 9 -1 8 7 -2 7 5 12 14 12 10 -1
15 2 12 7 -3 5 0 9 6 9 6 0 8 5 4 11 -5 8 -1 8 14 0 14 -7 23 -8 27 -1 4 6 11
8 16 5 5 -3 6 2 2 11 -6 16 -7 15 -20 -2 -10 -13 -13 -14 -13 -3 0 8 9 20 20
27 12 7 18 17 15 22 -4 6 -11 7 -17 4 -7 -4 -8 -2 -4 4 5 9 14 8 30 -4 22 -14
24 -14 22 3 0 11 5 17 14 15 8 -2 12 0 8 4 -4 4 -2 14 5 23 10 14 10 14 -4 4
-12 -10 -16 -10 -16 0 0 7 11 13 23 13 18 0 21 -3 13 -17 -6 -12 -5 -20 1 -24
6 -4 9 -1 8 7 -2 8 4 12 15 10 9 -2 17 2 17 8 0 6 -4 9 -8 6 -5 -3 -9 1 -9 9
0 13 3 13 18 -1 11 -10 19 -12 24 -5 3 6 11 11 17 11 5 0 0 -9 -13 -19 l-24
-19 43 8 c26 4 45 4 48 -2 4 -6 10 -5 15 3 7 11 9 11 9 1 0 -7 4 -11 9 -8 5 4
7 -3 4 -14 -3 -12 0 -20 6 -20 7 0 10 4 7 8 -3 5 2 9 10 9 8 0 13 -6 10 -13
-3 -8 0 -16 6 -20 6 -4 8 -3 5 3 -4 6 1 17 10 24 13 11 17 11 20 1 3 -6 10 -9
15 -6 7 4 8 2 4 -4 -4 -7 -2 -12 4 -12 6 0 13 7 16 15 4 8 10 15 16 15 5 0 7
-4 4 -8 -2 -4 -1 -14 4 -22 7 -11 11 -11 24 -1 11 9 16 10 16 2 0 -6 5 -11 11
-11 5 0 7 5 4 10 -3 6 1 10 9 10 9 0 16 -4 16 -10 0 -5 5 -10 11 -10 5 0 7 4
4 10 -11 19 -14 50 -4 56 5 3 8 0 7 -7 -2 -7 5 -15 15 -17 9 -2 17 2 17 8 0 6
-4 9 -8 6 -5 -3 -9 1 -9 9 0 8 3 14 6 13 19 -1 50 16 44 25 -4 6 0 8 9 5 11
-5 14 0 10 18 -2 13 -9 21 -15 17 -6 -3 -7 -1 -3 6 4 6 11 9 16 6 11 -7 35 35
32 53 -2 7 4 15 12 18 9 3 14 9 12 13 -3 4 0 13 6 21 8 12 9 11 4 -3 -4 -12
-2 -17 6 -15 15 5 20 38 5 38 -5 0 -7 3 -4 6 4 4 13 1 21 -5 12 -10 14 -9 9 8
-3 12 -10 18 -15 15 -5 -3 -4 3 3 14 7 12 17 18 22 15 5 -3 3 -9 -4 -14 -15
-10 -14 -10 18 -14 12 -1 20 2 17 7 -3 4 -10 6 -15 3 -5 -3 -6 1 -3 9 3 9 10
13 15 10 5 -3 9 -2 8 3 -3 12 13 47 25 56 7 5 6 7 -4 6 -8 -1 -24 -1 -35 0
-18 2 -18 3 4 12 16 6 21 14 17 25 -6 15 -4 15 19 0 14 -9 25 -12 25 -7 0 5
-6 11 -12 14 -10 3 -10 9 0 27 13 21 12 22 -5 16 -13 -5 -15 -4 -7 4 6 6 20
12 32 13 11 0 18 5 16 9 -3 5 -10 6 -15 2 -6 -3 -9 2 -7 12 2 12 -2 18 -12 16
-8 -1 -2 9 14 22 19 16 24 26 16 31 -6 4 -9 13 -6 21 3 8 0 11 -9 7 -8 -3 -12
-9 -9 -14 8 -14 -6 -11 -21 5 -8 7 -12 16 -10 18 3 3 -2 5 -10 5 -8 0 -12 -4
-9 -9 5 -8 -3 -10 -43 -11 -12 0 -20 -4 -17 -9 3 -4 11 -5 17 -2 9 5 8 3 0 -6
-10 -11 -17 -10 -35 5 -13 11 -17 13 -10 5 19 -22 14 -32 -10 -20 -22 11 -22
10 -4 -4 23 -19 13 -35 -12 -19 -14 8 -18 7 -18 -7 0 -11 6 -16 16 -13 12 4
13 3 1 -5 -8 -6 -23 -8 -34 -6 -28 5 -46 -12 -40 -39 3 -16 2 -18 -5 -8 -12
17 -34 10 -38 -12 -1 -9 2 -15 7 -11 5 3 7 10 4 15 -4 5 -1 9 4 9 14 0 14 -6
-1 -30 -12 -19 -13 -19 -25 3 -7 12 -12 16 -13 9 0 -7 -5 -10 -12 -6 -6 4 -8
3 -4 -4 3 -6 2 -13 -4 -17 -5 -3 -10 -1 -10 6 0 7 -6 4 -14 -6 -9 -13 -11 -25
-5 -36 7 -14 5 -16 -11 -12 -12 3 -20 0 -20 -8 0 -8 -6 -5 -15 7 -14 18 -14
17 -9 -16 l5 -35 -14 30 -14 30 -8 -28 c-8 -28 -46 -53 -74 -48 -13 2 -13 1 0
-15 12 -15 12 -16 0 -9 -11 6 -13 4 -8 -11 6 -16 5 -17 -6 -4 -6 8 -17 16 -22
17 -6 1 -17 3 -25 5 -9 2 -15 -4 -14 -13 1 -9 -5 -16 -12 -16 -7 0 -11 4 -8 8
2 4 0 10 -6 14 -14 9 -66 18 -58 10 3 -4 13 -8 22 -9 21 -3 22 -19 1 -22 -8
-1 -13 2 -9 7 5 8 -9 13 -28 10 -5 0 -8 4 -8 10 0 5 -4 8 -9 4 -5 -3 -12 -1
-16 4 -3 6 -13 7 -23 4 -22 -8 -13 1 15 16 20 10 22 9 16 -6 -5 -14 -3 -16 7
-6 7 6 10 19 6 28 -5 15 -9 15 -24 4 -16 -13 -16 -12 1 7 9 11 14 24 10 27 -3
4 0 7 7 7 10 0 9 5 -3 18 -10 10 -14 21 -11 25 3 3 -4 3 -15 0 -22 -6 -20 -18
2 -18 7 0 13 -10 13 -22 1 -13 -3 -23 -8 -23 -5 0 -6 10 -2 22 6 21 5 21 -10
9 -15 -12 -17 -12 -14 0 2 8 -3 13 -12 11 -8 -2 -12 0 -8 4 4 4 2 14 -5 23
-11 14 -10 14 6 2 9 -7 17 -9 17 -3 0 12 -26 23 -34 14 -4 -3 -17 -7 -29 -9
-17 -2 -19 -1 -7 6 8 5 17 8 20 6 4 -2 7 2 7 10 0 11 -4 12 -14 4 -7 -6 -19
-9 -28 -5 -8 3 -14 0 -12 -6 1 -6 -13 -11 -33 -11 -19 0 -38 -4 -41 -9 -3 -6
-9 -3 -12 5 -4 11 0 15 13 12 10 -2 24 2 30 10 9 10 8 13 -4 11 -9 -1 -18 -5
-22 -8 -3 -4 -13 -4 -22 -1 -12 5 -14 1 -9 -16 5 -21 4 -21 -11 -8 -16 13 -38
14 -87 4 -11 -2 -23 0 -26 5 -3 5 -9 2 -12 -7 -4 -9 -3 -13 3 -10 6 3 10 2 10
-3 0 -11 -30 -25 -38 -17 -3 3 -1 5 4 5 5 0 10 9 10 19 0 11 -3 18 -7 15 -4
-2 -9 1 -11 8 -3 7 -7 5 -11 -6 -4 -10 -3 -15 3 -11 6 3 10 1 10 -4 0 -17 -13
-13 -43 15 -25 23 -30 53 -6 38 5 -3 6 -10 3 -16 -5 -7 -2 -8 6 -3 9 6 11 4 5
-6 -7 -12 -6 -12 6 -1 12 11 11 15 -3 23 -10 5 -15 16 -12 24 4 8 1 15 -6 15
-6 0 -9 -4 -6 -8 3 -5 -1 -9 -9 -9 -8 0 -15 4 -15 9 0 4 5 8 10 8 11 0 8 65
-3 77 -4 3 -2 12 4 20 9 10 8 18 -6 33 -10 11 -22 17 -27 14 -7 -4 -7 0 -1 12
13 26 9 69 -8 91 -13 16 -12 17 2 5 14 -10 18 -10 23 4 8 21 8 24 -5 24 -5 0
-7 -6 -3 -12 5 -9 3 -9 -9 1 -16 13 -14 36 3 26 4 -3 14 3 21 12 12 14 12 16
-1 8 -21 -13 -49 -13 -47 -1 1 6 -3 10 -9 9 -7 -1 -10 6 -6 19 4 15 1 19 -9
16 -8 -3 -13 -11 -11 -17 1 -7 -3 -9 -9 -6 -7 5 -6 12 6 24 15 15 17 15 30 -3
8 -10 16 -24 18 -30 2 -6 8 -8 12 -4 4 4 0 15 -9 24 -10 9 -15 23 -12 30 3 7
0 16 -6 20 -7 4 -8 3 -4 -4 4 -7 1 -12 -9 -12 -9 0 -14 4 -10 9 3 5 0 13 -6
17 -8 4 -9 3 -5 -4 9 -14 9 -14 -32 -2 l-34 9 16 -24 c9 -14 12 -25 6 -25 -5
0 -10 5 -10 10 0 6 -7 10 -16 10 -9 0 -12 5 -8 13 4 6 4 9 -1 5 -4 -4 -15 -2
-24 5 -9 7 -7 2 4 -14z m90 -9 c3 -6 -1 -7 -9 -4 -18 7 -21 14 -7 14 6 0 13
-4 16 -10z m100 -260 c3 -5 0 -19 -7 -29 -14 -19 -14 -19 -28 2 -12 21 -12 21
5 7 16 -14 17 -13 11 8 -7 22 7 31 19 12z m-992 -37 c-7 -3 -10 -10 -7 -18 3
-7 1 -16 -5 -20 -6 -3 -9 0 -5 8 3 8 0 18 -5 22 -17 10 -3 25 16 18 10 -4 12
-8 6 -10z m48 -10 c13 -16 12 -17 -3 -4 -17 13 -22 21 -14 21 2 0 10 -8 17
-17z m2105 -5 c4 -6 3 -8 -4 -4 -6 3 -13 2 -17 -4 -3 -5 -11 -10 -18 -10 -6 0
-2 7 9 15 23 18 21 17 30 3z m-1161 -8 c-3 -5 -12 -10 -18 -10 -7 0 -6 4 3 10
19 12 23 12 15 0z m1210 -10 c3 -5 -1 -10 -10 -10 -9 0 -13 5 -10 10 3 6 8 10
10 10 2 0 7 -4 10 -10z m-1448 -22 c-7 -10 -16 -18 -21 -18 -4 0 -3 6 3 13 6
8 9 16 6 19 -3 2 1 5 9 5 11 0 12 -4 3 -19z m224 -11 c-10 -9 -11 -8 -5 6 3
10 9 15 12 12 3 -3 0 -11 -7 -18z m1119 19 c0 -2 -9 -6 -20 -9 -11 -3 -18 -1
-14 4 5 9 34 13 34 5z m-2115 -26 c-2 -11 2 -20 8 -20 7 0 3 -6 -8 -12 -19
-11 -19 -11 0 -20 20 -8 20 -8 0 -5 -20 2 -27 22 -16 42 3 6 6 13 7 18 3 15 4
17 8 17 3 0 3 -9 1 -20z m1991 -35 c-1 -8 -6 -18 -11 -22 -4 -4 -5 -2 -1 5 4
7 2 12 -6 12 -9 0 -9 3 2 10 19 12 19 13 16 -5z m38 -3 c3 -5 -1 -9 -9 -9 -8
0 -15 4 -15 9 0 4 4 8 9 8 6 0 12 -4 15 -8z m-1286 -20 c5 -17 -13 -15 -27 2
-10 12 -9 14 5 12 10 -2 20 -8 22 -14z m-503 -22 c3 -5 1 -10 -4 -10 -6 0 -11
5 -11 10 0 6 2 10 4 10 3 0 8 -4 11 -10z m265 6 c0 -2 -7 -7 -16 -10 -8 -3
-12 -2 -9 4 6 10 25 14 25 6z m-165 -16 c-3 -5 -12 -10 -18 -10 -7 0 -6 4 3
10 19 12 23 12 15 0z m1562 -15 c0 -8 -4 -12 -9 -9 -5 3 -6 10 -3 15 9 13 12
11 12 -6z m-742 -13 c-3 -3 -11 0 -18 7 -9 10 -8 11 6 5 10 -3 15 -9 12 -12z
m714 -8 c4 3 8 -1 8 -9 0 -19 -5 -19 -22 -1 -8 7 -11 17 -7 20 4 4 8 2 10 -3
2 -6 7 -9 11 -7z m281 -53 c0 -16 -28 -33 -35 -21 -4 6 -4 14 -1 17 3 4 6 1 6
-6 0 -7 5 -9 10 -6 6 4 8 11 5 16 -4 5 -1 9 4 9 6 0 11 -4 11 -9z m-519 -78
c13 -16 12 -17 -3 -4 -17 13 -22 21 -14 21 2 0 10 -8 17 -17z m-1767 -89 c5
-14 4 -15 -9 -4 -17 14 -19 20 -6 20 5 0 12 -7 15 -16z m840 -97 c4 4 4 0 0
-10 -3 -10 -1 -17 5 -17 15 0 14 -13 -4 -36 -13 -16 -14 -16 -9 -1 4 10 1 17
-7 17 -7 0 -9 -3 -6 -7 4 -3 2 -12 -4 -19 -8 -10 -6 -12 10 -9 25 5 26 -2 4
-27 -9 -11 -11 -18 -5 -18 7 0 12 5 12 11 0 5 5 7 10 4 8 -5 7 -11 -1 -21 -6
-7 -16 -11 -23 -7 -6 4 -5 -1 3 -10 12 -15 9 -21 -11 -18 -5 0 -8 -3 -8 -9 0
-5 5 -10 11 -10 5 0 7 -5 3 -12 -4 -7 -3 -8 4 -4 8 5 12 -1 12 -14 0 -12 4
-19 9 -15 5 3 3 -8 -5 -24 -8 -16 -16 -42 -17 -58 -1 -15 -8 -33 -15 -39 -11
-8 -10 -13 5 -25 17 -13 17 -13 3 5 -14 18 -13 19 3 13 11 -4 16 -3 12 3 -10
16 1 11 16 -7 12 -14 12 -16 0 -8 -11 6 -13 2 -9 -19 4 -20 2 -24 -8 -16 -10
9 -11 6 -7 -9 3 -12 10 -18 17 -14 6 3 8 3 4 -2 -4 -4 -3 -16 3 -26 5 -11 6
-19 2 -18 -36 6 -41 -15 -9 -41 16 -14 17 -17 3 -17 -9 0 -14 3 -12 7 2 4 -2
7 -10 7 -9 0 -11 -4 -6 -11 5 -6 7 -21 5 -33 -2 -13 0 -23 5 -23 6 0 8 9 6 21
-3 17 -2 19 10 9 11 -9 10 -17 -7 -45 -18 -31 -18 -36 -5 -50 12 -12 13 -22 6
-47 -11 -40 -11 -40 -1 -34 5 3 9 -1 9 -9 0 -11 -4 -12 -13 -4 -9 7 -12 1 -12
-26 0 -23 5 -39 15 -42 11 -5 8 -9 -13 -19 -16 -7 -23 -13 -16 -13 6 -1 12 -5
12 -11 0 -5 -8 -7 -17 -3 -19 7 -18 5 9 -15 14 -11 16 -10 14 12 -2 17 1 23
11 19 10 -4 11 -9 3 -18 -8 -9 -8 -15 0 -20 5 -3 10 -12 10 -18 0 -8 -3 -8 -9
2 -5 8 -11 9 -15 3 -3 -6 -2 -13 4 -17 6 -4 7 -11 4 -17 -4 -6 0 -14 7 -19 9
-6 10 -9 2 -9 -6 0 -10 -9 -8 -19 4 -19 -9 -22 -34 -7 -8 5 -16 4 -21 -5 -10
-15 -4 -29 13 -29 8 0 8 3 -2 9 -8 5 -9 11 -3 15 5 3 12 -1 16 -9 3 -8 11 -13
18 -11 7 1 9 1 4 -2 -4 -2 -2 -9 5 -14 11 -8 10 -9 -3 -5 -12 4 -16 0 -14 -17
1 -12 6 -28 10 -35 10 -15 1 -25 -13 -16 -6 3 -8 11 -5 17 5 7 1 9 -9 5 -10
-3 -17 -2 -17 3 0 6 7 10 15 10 8 0 15 5 15 10 0 17 -28 11 -40 -7 -11 -17
-11 -17 -6 -1 3 11 -4 27 -17 39 -12 12 -16 19 -9 15 8 -5 15 1 21 16 10 27 4
48 -14 48 -7 0 -16 7 -19 16 -6 15 -4 15 11 3 9 -8 14 -9 10 -2 -4 6 -1 14 5
17 9 4 8 5 -2 5 -37 -3 -50 2 -50 19 0 14 2 15 10 2 7 -11 10 -11 10 -2 0 7 5
10 12 6 7 -4 8 -3 4 5 -4 6 -12 9 -17 6 -5 -4 -9 0 -9 7 0 8 -5 6 -11 -4 -5
-10 -15 -18 -22 -18 -7 0 -6 4 3 10 9 6 11 10 3 10 -8 0 -10 7 -6 18 6 15 5
15 -10 3 -16 -12 -17 -12 -10 5 6 17 5 17 -10 5 -10 -8 -20 -11 -24 -7 -3 3
-1 6 5 6 6 0 14 9 17 20 4 11 11 17 17 14 7 -5 8 -2 3 6 -6 10 -12 7 -26 -11
-19 -25 -23 -21 -19 21 2 24 1 25 -14 5 -13 -17 -17 -18 -25 -6 -6 9 -6 24 0
38 13 35 11 38 -9 12 -15 -17 -21 -19 -27 -9 -5 9 -4 11 3 6 7 -4 12 -1 12 9
0 13 -4 14 -20 5 -16 -8 -20 -8 -18 2 2 7 -2 12 -7 11 -6 -1 -12 7 -13 18 -4
48 -5 49 -19 37 -7 -6 -17 -8 -20 -4 -4 4 -1 11 7 16 10 7 11 10 3 10 -7 0
-13 7 -13 15 0 8 -4 15 -10 15 -5 0 -7 -8 -4 -17 4 -12 -1 -10 -15 7 -18 21
-20 22 -15 5 5 -18 5 -18 -6 -2 -6 9 -17 14 -23 11 -7 -4 -9 -4 -5 1 11 12
-11 47 -25 38 -9 -5 -9 -3 0 9 7 8 10 17 8 20 -3 3 -1 16 4 30 7 18 6 25 -4
25 -7 0 -11 -7 -8 -16 4 -14 3 -14 -5 -1 -13 17 -6 30 16 30 14 0 15 2 2 9 -8
6 -19 7 -25 3 -5 -3 -4 2 4 11 13 16 9 21 -14 18 -5 -1 -2 5 8 13 13 10 14 15
6 18 -9 3 -8 6 3 11 13 4 16 1 12 -19 -2 -13 -1 -24 4 -24 12 0 10 54 -2 62
-6 4 -5 12 3 21 9 12 9 16 -1 21 -7 3 2 3 20 0 19 -2 32 0 32 6 0 6 -4 8 -10
5 -5 -3 -10 1 -10 10 0 11 5 15 16 11 9 -4 13 -2 8 5 -4 7 1 9 17 5 13 -3 18
-3 11 0 -10 5 -10 9 -1 20 6 8 9 25 7 39 -3 13 -1 22 3 19 5 -3 9 0 9 7 0 6 9
1 21 -12 11 -13 18 -18 14 -11 -3 6 -1 12 6 12 6 0 1 9 -12 20 -13 11 -19 20
-14 19 6 -1 13 0 18 1 4 1 17 3 30 4 12 0 23 7 23 14 1 6 2 17 3 23 0 5 6 7
11 4 6 -4 7 -11 4 -17 -4 -7 -2 -8 5 -4 6 4 9 12 5 17 -3 6 2 9 11 7 13 -2 19
4 20 20 1 13 -3 21 -9 19 -6 -3 -10 -9 -9 -14 1 -5 -7 -10 -18 -10 -18 -2 -17
0 5 18 26 20 53 18 40 -3 -4 -6 -2 -8 4 -4 5 3 12 3 15 -1 2 -5 2 -2 0 5 -2 9
4 11 20 7 22 -7 22 -7 2 8 -11 9 -17 19 -13 23 4 4 13 2 20 -3 16 -12 49 -13
42 -1 -3 4 0 9 5 9 6 1 16 2 23 3 6 0 13 8 15 16 4 13 3 13 -6 0 -9 -13 -11
-13 -11 1 0 11 9 17 25 17 19 0 23 -4 15 -13 -7 -8 -5 -12 5 -12 8 0 13 2 10
5 -2 3 0 13 6 24 8 14 14 17 23 9 7 -6 16 -8 20 -4z m-129 -37 c-14 -15 -21
-17 -32 -9 -18 15 -16 19 7 14 11 -2 22 0 25 6 4 5 9 9 12 9 3 0 -2 -9 -12
-20z m888 -4 c6 -14 -1 -26 -14 -26 -4 0 -7 9 -6 20 1 23 12 26 20 6z m-723
-30 c0 -3 -4 -8 -10 -11 -5 -3 -10 -1 -10 4 0 6 5 11 10 11 6 0 10 -2 10 -4z
m320 -20 c0 -2 -7 -7 -16 -10 -8 -3 -12 -2 -9 4 6 10 25 14 25 6z m-655 -56
c3 -6 -1 -7 -9 -4 -18 7 -21 14 -7 14 6 0 13 -4 16 -10z m315 -30 c0 -5 -7
-10 -16 -10 -8 0 -12 5 -9 10 3 6 10 10 16 10 5 0 9 -4 9 -10z m-1299 -77 c13
-16 12 -17 -3 -4 -10 7 -18 15 -18 17 0 8 8 3 21 -13z m889 3 c0 -3 -4 -8 -10
-11 -5 -3 -10 -1 -10 4 0 6 5 11 10 11 6 0 10 -2 10 -4z m401 -39 c-10 -9 -11
-8 -5 6 3 10 9 15 12 12 3 -3 0 -11 -7 -18z m-1041 -9 c10 -21 10 -21 -3 -6
-8 10 -18 14 -22 10 -5 -4 -5 -1 -1 6 10 17 14 15 26 -10z m1047 -21 c0 -8 -6
-14 -13 -14 -7 0 -10 6 -7 14 3 7 8 13 12 13 4 0 8 -6 8 -13z m602 -51 c10
-12 9 -14 -6 -11 -10 2 -25 4 -33 5 -10 1 -9 4 5 10 11 5 21 9 21 9 1 1 7 -5
13 -13z m-1984 -24 c-3 -3 -11 0 -18 7 -9 10 -8 11 6 5 10 -3 15 -9 12 -12z
m1735 4 c-7 -7 -13 -7 -20 0 -6 6 -3 10 10 10 13 0 16 -4 10 -10z m150 -64 c0
-5 -7 -9 -15 -9 -8 0 -12 4 -9 9 3 4 9 8 15 8 5 0 9 -4 9 -8z m390 -2 c0 -5
-2 -10 -4 -10 -3 0 -8 5 -11 10 -3 6 -1 10 4 10 6 0 11 -4 11 -10z m-330 -20
c0 -5 -2 -10 -4 -10 -3 0 -8 5 -11 10 -3 6 -1 10 4 10 6 0 11 -4 11 -10z m595
-1 c-7 -11 -35 -12 -35 -1 0 4 9 8 20 9 11 1 18 -2 15 -8z m-1155 -19 c0 -5
-2 -10 -4 -10 -3 0 -8 5 -11 10 -3 6 -1 10 4 10 6 0 11 -4 11 -10z m674 -26
c3 -8 2 -12 -4 -9 -6 3 -10 10 -10 16 0 14 7 11 14 -7z m25 -58 c9 -11 9 -16
0 -22 -8 -4 -9 -3 -5 4 11 19 -5 14 -21 -5 -12 -16 -12 -14 -2 10 14 32 13 31
28 13z m-2001 -41 c-3 -3 -9 2 -12 12 -6 14 -5 15 5 6 7 -7 10 -15 7 -18z
m1292 5 c-6 -11 -13 -20 -16 -20 -2 0 0 9 6 20 6 11 13 20 16 20 2 0 0 -9 -6
-20z m-397 -35 c-2 -7 -10 -12 -17 -12 -7 0 -13 5 -13 12 0 6 8 11 18 11 9 0
15 -5 12 -11z m40 -30 c4 -8 3 -16 -1 -19 -4 -3 -9 4 -9 15 -2 23 3 25 10 4z
m1765 2 c8 -10 6 -13 -8 -14 -11 -1 -22 2 -25 8 -4 5 2 6 11 2 12 -4 15 -3 10
5 -10 16 -1 15 12 -1z m-688 -52 c0 -11 -29 -11 -33 -1 -4 10 1 12 14 9 10 -3
19 -7 19 -8z m754 -26 c-3 -5 -10 -7 -15 -3 -5 3 -7 10 -3 15 3 5 10 7 15 3 5
-3 7 -10 3 -15z m-644 -3 c0 -3 -4 -8 -10 -11 -5 -3 -10 -1 -10 4 0 6 5 11 10
11 6 0 10 -2 10 -4z m-820 -32 c0 -8 -19 -13 -24 -6 -3 5 1 9 9 9 8 0 15 -2
15 -3z m1040 -24 c0 -5 -5 -10 -11 -10 -5 0 -7 5 -4 10 3 6 8 10 11 10 2 0 4
-4 4 -10z m569 -16 c15 -16 14 -16 -8 -1 -17 12 -29 13 -42 6 -15 -7 -17 -6
-13 5 7 18 42 12 63 -10z m-609 -5 c0 -6 -4 -7 -10 -4 -5 3 -10 11 -10 16 0 6
5 7 10 4 6 -3 10 -11 10 -16z m-660 -44 c-5 -6 -8 -15 -5 -18 3 -4 2 -5 -2 -2
-4 3 -8 17 -9 30 -1 20 2 23 13 14 9 -8 10 -15 3 -24z m1360 -35 c0 -5 -5 -10
-11 -10 -5 0 -7 5 -4 10 3 6 8 10 11 10 2 0 4 -4 4 -10z m-580 -16 c0 -8 -19
-13 -24 -6 -3 5 1 9 9 9 8 0 15 -2 15 -3z m-1227 -50 c-7 -19 -10 -18 -16 5
-3 13 -1 18 9 14 7 -2 10 -11 7 -19z m1007 12 c0 -7 -40 -14 -44 -7 -3 4 6 8
20 9 13 1 24 0 24 -2z m-550 -31 c-5 -6 -7 -15 -3 -19 4 -4 -1 -4 -12 0 -11 5
-14 9 -7 12 7 2 12 8 12 13 0 6 -5 7 -12 3 -7 -4 -8 -3 -4 4 4 6 13 9 22 5 10
-4 12 -9 4 -18z m-1096 -17 c-3 -4 0 -8 7 -8 7 0 10 -3 6 -6 -3 -3 -16 1 -28
9 -22 16 -22 16 -1 14 11 0 18 -5 16 -9z m659 -99 c-9 -9 -12 -7 -10 9 1 14 5
18 11 12 7 -7 6 -14 -1 -21z m67 -17 c0 -5 -7 -9 -15 -9 -8 0 -15 4 -15 9 0 4
7 8 15 8 8 0 15 -4 15 -8z m-113 -39 c-14 -14 -19 -15 -29 -4 -11 10 -10 11 3
6 10 -4 20 -2 24 4 3 6 9 11 13 11 3 0 -1 -8 -11 -17z m108 -3 c-3 -5 -12 -10
-18 -10 -7 0 -6 4 3 10 19 12 23 12 15 0z m-3 -68 c-9 -3 -9 -9 -1 -25 9 -20
9 -20 -4 -5 -8 10 -17 15 -20 12 -4 -4 -3 19 2 33 1 1 9 -1 18 -4 11 -4 12 -8
5 -11z m394 1 c-2 -9 -9 -19 -17 -21 -11 -3 -11 -1 1 7 13 10 13 11 0 11 -13
0 -13 1 0 10 19 12 19 13 16 -7z m-780 -98 c1 -8 -4 -11 -12 -8 -15 6 -18 16
-7 26 8 9 16 1 19 -18z m152 14 c-2 -6 -7 -10 -12 -9 -5 1 -12 -4 -17 -12 -6
-9 -8 -7 -7 8 1 12 10 21 21 21 10 1 17 -3 15 -8z m42 2 c0 -4 -10 -12 -22
-20 -20 -13 -22 -12 -11 1 7 8 11 17 8 20 -3 2 2 5 10 5 8 0 15 -3 15 -6z m90
-11 c0 -5 -5 -10 -11 -10 -5 0 -7 5 -4 10 3 6 8 10 11 10 2 0 4 -4 4 -10z
m811 -13 c-13 -13 -26 -3 -16 12 3 6 11 8 17 5 6 -4 6 -10 -1 -17z m-781 -7
c0 -5 -2 -10 -4 -10 -3 0 -8 5 -11 10 -3 6 -1 10 4 10 6 0 11 -4 11 -10z
m-525 -10 c3 -5 1 -10 -4 -10 -6 0 -11 5 -11 10 0 6 2 10 4 10 3 0 8 -4 11
-10z m1490 -10 c-3 -5 -14 -10 -23 -9 -14 0 -13 2 3 9 27 11 27 11 20 0z
m-1934 -147 c10 -12 10 -14 1 -9 -7 4 -15 1 -18 -8 -5 -12 -9 -12 -19 -3 -10
9 -9 14 4 24 9 7 17 13 17 13 1 0 8 -8 15 -17z m2586 -13 c1 -11 -2 -18 -8
-15 -11 7 -12 35 -1 35 4 0 8 -9 9 -20z m-2294 -70 c-6 -24 -19 -34 -27 -21
-4 5 1 17 10 25 20 21 23 20 17 -4z m337 14 c0 -8 -19 -13 -24 -6 -3 5 1 9 9
9 8 0 15 -2 15 -3z m-730 -20 c0 -2 -9 -4 -21 -4 -11 0 -18 4 -14 10 5 8 35 3
35 -6z m737 -9 c0 -8 -4 -12 -9 -9 -5 3 -6 10 -3 15 9 13 12 11 12 -6z m-753
-14 c-9 -9 -45 -11 -39 -2 3 6 14 9 25 8 10 -1 17 -3 14 -6z m2519 -61 c-7
-27 -13 -25 -11 4 1 14 5 23 9 20 4 -2 5 -13 2 -24z m-1463 4 c0 -8 -19 -13
-24 -6 -3 5 1 9 9 9 8 0 15 -2 15 -3z m1428 -22 c7 7 12 9 12 6 0 -3 -6 -11
-14 -17 -12 -10 -17 -8 -26 11 -10 20 -10 21 3 6 10 -13 16 -15 25 -6z m-2483
-2 c3 -5 1 -10 -4 -10 -6 0 -11 5 -11 10 0 6 2 10 4 10 3 0 8 -4 11 -10z
m2285 -94 c0 -3 -4 -8 -10 -11 -5 -3 -10 -1 -10 4 0 6 5 11 10 11 6 0 10 -2
10 -4z m-180 -46 c0 -5 -5 -10 -11 -10 -5 0 -7 5 -4 10 3 6 8 10 11 10 2 0 4
-4 4 -10z m-56 -66 c3 -8 2 -12 -4 -9 -6 3 -10 10 -10 16 0 14 7 11 14 -7z
m-710 -9 c3 -8 1 -15 -4 -15 -6 0 -10 7 -10 15 0 8 2 15 4 15 2 0 6 -7 10 -15z
m33 9 c-3 -3 -12 -4 -19 -1 -8 3 -5 6 6 6 11 1 17 -2 13 -5z m33 -8 c0 -3 -4
-8 -10 -11 -5 -3 -10 -1 -10 4 0 6 5 11 10 11 6 0 10 -2 10 -4z m35 -14 c-3
-3 -11 0 -18 7 -9 10 -8 11 6 5 10 -3 15 -9 12 -12z m374 -49 c-1 -5 -1 -15 0
-23 1 -13 2 -13 11 0 5 8 10 11 10 5 0 -5 -4 -16 -9 -24 -7 -11 -10 -9 -16 8
-3 11 -12 21 -18 21 -7 0 -6 4 3 10 18 12 20 12 19 3z m204 -86 c7 4 6 -1 -2
-10 -16 -20 -33 -13 -24 10 4 11 8 13 11 5 2 -7 9 -9 15 -5z m-641 -44 c-10
-4 -10 -8 -1 -19 10 -12 9 -13 -5 -8 -24 9 -18 35 8 33 6 0 5 -3 -2 -6z m-72
-26 c0 -1 -12 -3 -28 -3 -15 -1 -21 1 -14 3 6 3 9 9 6 15 -4 6 2 5 15 -1 11
-7 21 -13 21 -14z m40 -7 c0 -5 -5 -10 -11 -10 -5 0 -7 5 -4 10 3 6 8 10 11
10 2 0 4 -4 4 -10z m95 -8 c-3 -3 -11 0 -18 7 -9 10 -8 11 6 5 10 -3 15 -9 12
-12z m-270 -31 c-9 -8 -36 -10 -30 -2 2 4 11 8 20 8 8 0 13 -3 10 -6z m-81
-143 c-9 -14 -23 2 -17 18 4 12 8 13 14 3 4 -7 5 -17 3 -21z m556 -15 c0 -1
-5 -5 -12 -9 -7 -5 -8 -3 -3 6 6 9 4 12 -6 8 -10 -4 -15 1 -16 12 -2 17 0 18
18 2 10 -9 19 -17 19 -19z m25 -54 c-3 -12 -7 -24 -10 -27 -3 -3 -3 5 -1 19 6
30 5 29 10 29 3 0 3 -10 1 -21z m-692 -66 c-3 -7 -8 -13 -12 -13 -4 0 -8 6 -8
13 0 8 6 14 13 14 7 0 10 -6 7 -14z m-173 -103 c0 -5 -5 -10 -11 -10 -5 0 -7
5 -4 10 3 6 8 10 11 10 2 0 4 -4 4 -10z m1159 -48 c-1 -15 -2 -14 -6 1 -5 18
-5 18 -19 0 -14 -17 -14 -16 -4 5 12 25 31 21 29 -6z m26 9 c3 -5 2 -12 -3
-15 -5 -3 -9 1 -9 9 0 17 3 19 12 6z m-1248 -16 c0 -8 -4 -12 -9 -9 -5 3 -6
10 -3 15 9 13 12 11 12 -6z m1447 -64 c28 -29 28 -29 7 -40 -14 -8 -21 -8 -21
-1 0 5 7 10 15 10 13 0 13 2 3 14 -10 10 -15 11 -21 2 -6 -7 -7 -4 -3 7 3 9 1
17 -4 17 -6 0 -10 5 -10 10 0 15 4 13 34 -19z m-444 -41 c0 -5 -5 -10 -11 -10
-5 0 -7 5 -4 10 3 6 8 10 11 10 2 0 4 -4 4 -10z m-847 -13 c4 3 7 0 7 -7 0
-11 3 -11 12 -2 7 7 16 12 22 12 5 0 1 -6 -9 -14 -11 -8 -23 -12 -28 -9 -4 2
-14 0 -21 -6 -10 -9 -19 -7 -36 7 -18 14 -19 19 -7 19 9 0 14 -4 11 -9 -3 -4
5 -8 17 -8 19 0 20 2 8 18 -12 15 -12 16 2 5 9 -7 19 -10 22 -6z m587 -12 c5
3 11 1 14 -4 4 -5 0 -8 -6 -7 -21 3 -38 16 -38 29 0 7 5 4 11 -6 6 -9 14 -15
19 -12z m294 4 c-3 -5 -10 -7 -15 -3 -5 3 -7 10 -3 15 3 5 10 7 15 3 5 -3 7
-10 3 -15z m253 12 c8 7 13 8 13 1 0 -18 -28 -21 -41 -4 -11 14 -11 15 1 5 10
-9 17 -10 27 -2z m-147 -10 c0 -4 -13 -7 -29 -7 -17 0 -28 3 -26 7 6 9 55 9
55 0z m235 -19 c-3 -3 -11 0 -18 7 -9 10 -8 11 6 5 10 -3 15 -9 12 -12z"/>
<path d="M2424 3004 c1 -9 11 -21 22 -26 18 -9 18 -8 2 5 -10 8 -15 16 -12 19
3 4 1 9 -4 12 -6 3 -9 -1 -8 -10z"/>
<path d="M2116 2842 c-3 -4 4 -9 15 -9 23 -2 25 3 4 10 -8 4 -16 3 -19 -1z"/>
<path d="M2080 2801 c0 -6 4 -13 10 -16 6 -3 7 1 4 9 -7 18 -14 21 -14 7z"/>
<path d="M2415 2751 c-3 -5 0 -13 6 -17 7 -4 9 -3 5 4 -3 5 0 13 6 15 9 4 10
6 1 6 -6 1 -14 -3 -18 -8z"/>
<path d="M1991 2677 c-8 -10 -7 -14 2 -14 8 0 14 6 14 14 0 7 -1 13 -2 13 -2
0 -8 -6 -14 -13z"/>
<path d="M2413 2591 c0 -11 5 -18 9 -15 4 3 5 11 1 19 -7 21 -12 19 -10 -4z"/>
<path d="M2426 2562 c-3 -5 1 -9 9 -9 8 0 15 4 15 9 0 4 -4 8 -9 8 -6 0 -12
-4 -15 -8z"/>
<path d="M1995 2446 c11 -17 22 -22 36 -19 15 4 17 8 8 14 -8 4 -16 3 -20 -3
-4 -6 -10 -2 -14 11 -3 11 -11 21 -16 21 -5 0 -2 -11 6 -24z"/>
<path d="M2427 2349 c7 -7 15 -10 18 -7 3 3 -2 9 -12 12 -14 6 -15 5 -6 -5z"/>
<path d="M2417 2329 c6 -6 9 -19 6 -28 -4 -14 -3 -14 6 -1 15 21 14 27 -6 35
-14 5 -15 3 -6 -6z"/>
<path d="M2130 2321 c0 -6 4 -12 8 -15 5 -3 9 1 9 9 0 8 -4 15 -9 15 -4 0 -8
-4 -8 -9z"/>
<path d="M2195 2240 c3 -5 8 -10 11 -10 2 0 4 5 4 10 0 6 -5 10 -11 10 -5 0
-7 -4 -4 -10z"/>
<path d="M2405 2241 c-3 -5 -2 -12 3 -15 5 -3 9 1 9 9 0 17 -3 19 -12 6z"/>
<path d="M2410 2200 c0 -5 5 -10 10 -10 6 0 10 5 10 10 0 6 -4 10 -10 10 -5 0
-10 -4 -10 -10z"/>
<path d="M2405 2121 c15 -19 16 -23 4 -19 -9 4 -16 1 -16 -7 0 -7 6 -11 14 -8
7 3 13 0 13 -6 0 -11 -15 -15 -35 -11 -5 1 -6 -2 -2 -7 5 -4 13 -9 18 -9 5 -1
14 -2 20 -3 5 0 7 -6 3 -13 -4 -6 -3 -8 3 -5 8 5 10 59 3 77 -1 3 -1 10 0 15
1 6 -2 7 -6 3 -4 -4 -14 -2 -23 4 -9 7 -7 2 4 -11z"/>
<path d="M2370 2004 c0 -5 4 -15 8 -21 6 -10 12 -10 28 3 10 8 13 13 6 9 -7
-4 -19 -1 -27 5 -8 7 -15 9 -15 4z"/>
<path d="M2558 3812 c21 -14 19 -22 -8 -37 -14 -7 -25 -17 -25 -22 0 -4 -3 -7
-6 -6 -3 1 -6 -4 -6 -12 0 -8 4 -12 9 -9 4 3 8 0 8 -6 0 -6 5 -8 11 -4 8 5 8
8 0 14 -8 4 -4 14 12 31 26 27 29 50 7 56 -12 4 -12 3 -2 -5z"/>
<path d="M2754 3698 c-9 -13 -13 -100 -5 -92 2 2 11 -2 20 -8 13 -10 14 -10 4
2 -9 10 -10 17 -1 27 9 11 7 12 -8 7 -18 -5 -18 -5 0 10 20 16 33 51 15 40 -5
-3 -7 -10 -4 -15 4 -5 2 -9 -4 -9 -17 0 -24 22 -10 31 7 4 11 11 7 14 -3 4
-10 0 -14 -7z"/>
<path d="M1870 3531 c0 -6 4 -13 10 -16 6 -3 7 1 4 9 -7 18 -14 21 -14 7z"/>
<path d="M2775 3501 c-6 -11 13 -26 22 -17 4 3 1 6 -6 6 -7 0 -9 5 -6 10 3 6
4 10 1 10 -3 0 -7 -4 -11 -9z"/>
<path d="M3950 3466 c0 -2 7 -7 16 -10 8 -3 12 -2 9 4 -6 10 -25 14 -25 6z"/>
<path d="M2407 3405 c3 -8 9 -12 14 -9 12 7 11 11 -5 17 -10 4 -13 1 -9 -8z"/>
<path d="M2110 3402 c0 -5 7 -9 15 -9 8 0 12 4 9 9 -3 4 -9 8 -15 8 -5 0 -9
-4 -9 -8z"/>
<path d="M3070 3396 c0 -8 4 -17 9 -20 5 -4 7 3 4 14 -6 23 -13 26 -13 6z"/>
<path d="M2958 3393 c7 -3 16 -2 19 1 4 3 -2 6 -13 5 -11 0 -14 -3 -6 -6z"/>
<path d="M1735 3340 c-3 -5 1 -10 10 -10 9 0 13 5 10 10 -3 6 -8 10 -10 10 -2
0 -7 -4 -10 -10z"/>
<path d="M1706 3322 c-3 -5 1 -9 9 -9 8 0 12 4 9 9 -3 4 -7 8 -9 8 -2 0 -6 -4
-9 -8z"/>
<path d="M3905 3320 c-3 -6 1 -7 9 -4 18 7 21 14 7 14 -6 0 -13 -4 -16 -10z"/>
<path d="M3476 3275 c-3 -8 -1 -15 4 -15 6 0 10 7 10 15 0 8 -2 15 -4 15 -2 0
-6 -7 -10 -15z"/>
<path d="M3443 3261 c0 -11 5 -18 9 -15 4 3 5 11 1 19 -7 21 -12 19 -10 -4z"/>
<path d="M3409 3251 c-11 -16 -16 -18 -29 -8 -12 9 -13 9 -3 -3 15 -16 46 -23
37 -8 -4 6 0 14 7 19 7 4 10 11 7 14 -4 4 -12 -2 -19 -14z"/>
<path d="M3256 3243 c-6 -14 -5 -15 5 -6 7 7 10 15 7 18 -3 3 -9 -2 -12 -12z"/>
<path d="M1667 3202 c6 -15 5 -16 -13 -2 -18 14 -18 14 -4 -4 14 -18 13 -19
-5 -12 -11 4 -16 4 -12 0 4 -4 -1 -13 -11 -20 -15 -12 -15 -13 5 -8 12 3 31
16 43 29 18 19 19 23 6 28 -11 4 -13 1 -9 -11z"/>
<path d="M3835 3140 c-3 -5 -1 -10 4 -10 6 0 11 5 11 10 0 6 -2 10 -4 10 -3 0
-8 -4 -11 -10z"/>
<path d="M3802 3131 c-7 -4 -12 -12 -10 -17 1 -5 -6 -24 -16 -42 -9 -19 -15
-36 -12 -40 3 -3 6 0 6 8 0 10 3 10 18 -1 13 -10 14 -10 6 0 -14 15 -6 54 9
44 6 -3 7 -1 3 5 -3 6 2 15 11 21 11 6 13 11 5 11 -7 0 -10 5 -7 10 7 12 4 12
-13 1z"/>
<path d="M1540 3096 c0 -2 7 -7 16 -10 8 -3 12 -2 9 4 -6 10 -25 14 -25 6z"/>
<path d="M3705 2981 c-3 -5 -1 -12 5 -16 6 -4 7 -11 4 -17 -4 -7 -2 -8 5 -4 8
6 9 12 2 20 -6 7 -8 16 -4 19 3 4 4 7 0 7 -3 0 -8 -4 -12 -9z"/>
<path d="M3730 2979 c0 -5 5 -7 10 -4 6 3 10 8 10 11 0 2 -4 4 -10 4 -5 0 -10
-5 -10 -11z"/>
<path d="M2795 2960 c-3 -5 -1 -10 4 -10 6 0 11 5 11 10 0 6 -2 10 -4 10 -3 0
-8 -4 -11 -10z"/>
<path d="M3376 2961 c-4 -5 -2 -12 4 -16 5 -3 10 -3 10 1 0 3 6 1 13 -5 10 -8
14 -7 14 4 0 8 -3 13 -5 10 -3 -3 -11 0 -18 6 -8 6 -14 6 -18 0z"/>
<path d="M1468 2943 c7 -3 16 -2 19 1 4 3 -2 6 -13 5 -11 0 -14 -3 -6 -6z"/>
<path d="M3490 2933 c0 -12 28 -38 34 -32 2 2 -5 13 -15 23 -11 11 -19 15 -19
9z"/>
<path d="M2831 2917 c-1 -11 -6 -15 -13 -11 -7 5 -8 3 -3 -5 10 -16 29 2 22
21 -4 8 -6 7 -6 -5z"/>
<path d="M3546 2913 c-6 -14 -5 -15 5 -6 7 7 10 15 7 18 -3 3 -9 -2 -12 -12z"/>
<path d="M3186 2912 c-3 -6 -1 -14 5 -17 15 -10 25 3 12 16 -7 7 -13 7 -17 1z"/>
<path d="M1421 2879 c-1 -9 7 -23 17 -30 15 -12 16 -12 6 1 -6 8 -14 22 -17
30 -5 13 -6 12 -6 -1z"/>
<path d="M3020 2860 c0 -5 5 -10 11 -10 5 0 7 5 4 10 -3 6 -8 10 -11 10 -2 0
-4 -4 -4 -10z"/>
<path d="M2820 2846 c0 -2 8 -10 18 -17 15 -13 16 -12 3 4 -13 16 -21 21 -21
13z"/>
<path d="M3130 2839 c0 -5 5 -7 10 -4 6 3 10 8 10 11 0 2 -4 4 -10 4 -5 0 -10
-5 -10 -11z"/>
<path d="M1395 2820 c-3 -5 -1 -10 4 -10 6 0 11 5 11 10 0 6 -2 10 -4 10 -3 0
-8 -4 -11 -10z"/>
<path d="M1193 2800 c-1 -11 2 -22 8 -25 5 -4 8 3 6 14 -4 28 -12 34 -14 11z"/>
<path d="M1227 2777 c4 -6 8 -15 8 -19 0 -18 15 -19 15 -1 0 12 -7 24 -16 27
-10 4 -13 2 -7 -7z"/>
<path d="M1386 2761 c-4 -5 3 -7 14 -4 23 6 26 13 6 13 -8 0 -17 -4 -20 -9z"/>
<path d="M2839 2768 c-5 -18 -6 -38 -1 -34 7 8 12 36 6 36 -2 0 -4 -1 -5 -2z"/>
<path d="M1070 2756 c0 -2 7 -7 16 -10 8 -3 12 -2 9 4 -6 10 -25 14 -25 6z"/>
<path d="M2964 2673 c4 -4 16 -8 28 -10 12 -2 19 -1 16 2 -3 3 -16 8 -28 10
-12 2 -20 1 -16 -2z"/>
<path d="M1050 2600 c0 -5 5 -10 11 -10 5 0 7 5 4 10 -3 6 -8 10 -11 10 -2 0
-4 -4 -4 -10z"/>
<path d="M2876 2602 c-3 -5 1 -9 9 -9 8 0 12 4 9 9 -3 4 -7 8 -9 8 -2 0 -6 -4
-9 -8z"/>
<path d="M3287 2597 c-3 -8 3 -13 19 -13 18 0 21 3 12 13 -6 7 -14 13 -18 13
-4 0 -10 -6 -13 -13z"/>
<path d="M3335 2600 c3 -5 8 -10 11 -10 2 0 4 5 4 10 0 6 -5 10 -11 10 -5 0
-7 -4 -4 -10z"/>
<path d="M3470 2595 c-11 -13 -10 -14 4 -9 9 3 16 10 16 15 0 13 -6 11 -20 -6z"/>
<path d="M3500 2586 c0 -2 7 -6 15 -10 8 -3 15 -1 15 4 0 6 -7 10 -15 10 -8 0
-15 -2 -15 -4z"/>
<path d="M1063 2573 c-20 -8 -15 -19 9 -20 16 -2 19 0 9 6 -11 7 -11 9 0 14 8
3 10 5 4 5 -5 0 -16 -2 -22 -5z"/>
<path d="M2830 2561 c0 -6 4 -13 10 -16 6 -3 7 1 4 9 -7 18 -14 21 -14 7z"/>
<path d="M3646 2534 c-3 -8 -2 -13 3 -9 5 3 12 -1 14 -7 4 -8 6 -7 6 4 1 23
-15 32 -23 12z"/>
<path d="M2997 2495 c-18 -13 -18 -14 2 -24 13 -7 22 -8 26 -1 3 6 20 8 38 5
17 -4 29 -3 25 0 -3 4 -12 8 -20 9 -7 1 -22 7 -33 13 -15 8 -25 8 -38 -2z m27
-16 c-3 -5 -10 -7 -15 -3 -5 3 -7 10 -3 15 3 5 10 7 15 3 5 -3 7 -10 3 -15z"/>
<path d="M1093 2474 c0 -17 2 -22 7 -13 5 6 6 18 3 26 -8 19 -10 16 -10 -13z"/>
<path d="M3116 2472 c2 -3 -1 -11 -7 -19 -8 -9 -8 -13 -1 -13 16 0 26 20 15
30 -6 4 -8 5 -7 2z"/>
<path d="M2879 2438 c-5 -18 -6 -38 -1 -34 7 8 12 36 6 36 -2 0 -4 -1 -5 -2z"/>
<path d="M1096 2414 c-6 -15 -4 -15 11 -3 10 7 20 15 22 16 2 2 -3 3 -11 3 -9
0 -19 -7 -22 -16z"/>
<path d="M3795 2400 c3 -5 8 -10 11 -10 2 0 4 5 4 10 0 6 -5 10 -11 10 -5 0
-7 -4 -4 -10z"/>
<path d="M2815 2341 c-2 -5 3 -15 12 -22 9 -8 14 -9 10 -2 -4 6 -2 13 5 15 8
3 6 7 -5 11 -9 3 -19 2 -22 -2z"/>
<path d="M3957 2253 c-3 -5 -2 -15 2 -22 7 -10 10 -10 16 -1 4 6 3 16 -3 22
-5 5 -12 6 -15 1z"/>
<path d="M1263 2223 c0 -9 4 -10 14 -2 7 6 13 12 13 14 0 1 -6 2 -13 2 -8 0
-14 -6 -14 -14z"/>
<path d="M2816 2228 c3 -5 10 -6 15 -3 13 9 11 12 -6 12 -8 0 -12 -4 -9 -9z"/>
<path d="M3295 2229 c-4 -6 -5 -12 -2 -15 2 -3 7 2 10 11 7 17 1 20 -8 4z"/>
<path d="M1420 2220 c0 -5 5 -10 11 -10 5 0 7 5 4 10 -3 6 -8 10 -11 10 -2 0
-4 -4 -4 -10z"/>
<path d="M4070 2226 c0 -2 7 -7 16 -10 8 -3 12 -2 9 4 -6 10 -25 14 -25 6z"/>
<path d="M1462 2206 c7 -8 15 -12 17 -11 5 6 -10 25 -20 25 -5 0 -4 -6 3 -14z"/>
<path d="M3343 2205 c0 -7 6 -12 14 -11 19 3 21 19 2 21 -9 2 -16 -3 -16 -10z"/>
<path d="M2816 2195 c4 -8 8 -15 10 -15 2 0 4 7 4 15 0 8 -4 15 -10 15 -5 0
-7 -7 -4 -15z"/>
<path d="M4110 2206 c0 -2 7 -7 16 -10 8 -3 12 -2 9 4 -6 10 -25 14 -25 6z"/>
<path d="M3450 2139 c0 -5 5 -7 10 -4 6 3 10 8 10 11 0 2 -4 4 -10 4 -5 0 -10
-5 -10 -11z"/>
<path d="M4193 2115 c0 -8 4 -12 9 -9 5 3 6 10 3 15 -9 13 -12 11 -12 -6z"/>
<path d="M3307 2079 c7 -7 15 -10 18 -7 3 3 -2 9 -12 12 -14 6 -15 5 -6 -5z"/>
<path d="M2830 2059 c0 -5 5 -7 10 -4 6 3 10 8 10 11 0 2 -4 4 -10 4 -5 0 -10
-5 -10 -11z"/>
<path d="M4146 2051 c-10 -11 -13 -21 -7 -25 5 -4 12 -2 16 4 4 6 12 7 18 3 8
-5 8 -2 0 9 -7 8 -10 18 -6 21 3 4 4 7 1 7 -3 0 -13 -9 -22 -19z"/>
<path d="M1630 2020 c0 -5 5 -10 11 -10 5 0 7 5 4 10 -3 6 -8 10 -11 10 -2 0
-4 -4 -4 -10z"/>
<path d="M4120 2000 c-8 -5 -10 -10 -5 -10 6 0 17 5 25 10 8 5 11 10 5 10 -5
0 -17 -5 -25 -10z"/>
<path d="M3310 1970 c-6 -11 -8 -20 -6 -20 3 0 10 9 16 20 6 11 8 20 6 20 -3
0 -10 -9 -16 -20z"/>
<path d="M4084 1922 c1 -34 3 -38 18 -28 12 7 14 13 6 17 -6 4 -13 15 -14 24
-5 33 -11 25 -10 -13z"/>
<path d="M1716 1933 c-6 -14 -5 -15 5 -6 7 7 10 15 7 18 -3 3 -9 -2 -12 -12z"/>
<path d="M3310 1919 c0 -5 5 -7 10 -4 6 3 10 8 10 11 0 2 -4 4 -10 4 -5 0 -10
-5 -10 -11z"/>
<path d="M2106 1872 c-3 -6 -1 -14 5 -17 15 -10 25 3 12 16 -7 7 -13 7 -17 1z"/>
<path d="M2143 1855 c-3 -9 -3 -18 -1 -21 3 -3 8 4 11 16 6 23 -1 27 -10 5z"/>
<path d="M3385 1860 c-3 -5 1 -10 10 -10 9 0 13 5 10 10 -3 6 -8 10 -10 10 -2
0 -7 -4 -10 -10z"/>
<path d="M2320 1800 c-8 -5 -10 -10 -5 -10 6 0 17 5 25 10 8 5 11 10 5 10 -5
0 -17 -5 -25 -10z"/>
<path d="M3450 1778 c0 -4 4 -8 9 -8 6 0 12 4 15 8 3 5 -1 9 -9 9 -8 0 -15 -4
-15 -9z"/>
<path d="M4100 1759 c0 -5 5 -7 10 -4 6 3 10 8 10 11 0 2 -4 4 -10 4 -5 0 -10
-5 -10 -11z"/>
<path d="M3447 1737 c-3 -8 0 -14 7 -14 7 0 13 6 13 14 0 7 -4 13 -8 13 -4 0
-9 -6 -12 -13z"/>
<path d="M4076 1741 c-4 -5 -2 -12 3 -15 5 -4 12 -2 15 3 4 5 2 12 -3 15 -5 4
-12 2 -15 -3z"/>
<path d="M2070 1726 c0 -2 8 -10 18 -17 15 -13 16 -12 3 4 -13 16 -21 21 -21
13z"/>
<path d="M2357 1715 c-4 -8 -3 -16 1 -19 4 -3 9 4 9 15 2 23 -3 25 -10 4z"/>
<path d="M2898 1718 c-5 -11 -2 -15 10 -14 9 2 18 9 20 17 3 12 2 12 -6 0 -8
-11 -10 -11 -14 0 -3 10 -6 9 -10 -3z"/>
<path d="M3067 1696 c-3 -8 -2 -18 3 -21 13 -8 20 9 11 24 -6 10 -10 9 -14 -3z"/>
<path d="M1970 1681 c0 -5 5 -13 10 -16 6 -3 10 -2 10 4 0 5 -4 13 -10 16 -5
3 -10 2 -10 -4z"/>
<path d="M3181 1684 c-2 -19 54 -53 70 -43 11 8 10 9 -6 7 -12 -2 -19 2 -17
10 1 8 -2 11 -9 6 -9 -5 -10 -2 -5 11 5 15 4 16 -8 6 -11 -9 -15 -9 -19 1 -3
7 -6 8 -6 2z"/>
<path d="M4065 1681 c-6 -11 9 -23 19 -14 9 9 7 23 -3 23 -6 0 -12 -4 -16 -9z"/>
<path d="M1638 1636 c-23 -17 -23 -25 -1 -22 9 2 17 10 19 19 3 20 4 20 -18 3z"/>
<path d="M1524 1600 c2 -16 20 -14 24 2 3 10 2 10 -6 -1 -7 -9 -11 -10 -15 -2
-4 7 -5 8 -3 1z"/>
<path d="M1423 1543 c-7 -2 -13 -9 -13 -15 0 -6 6 -6 15 2 8 6 20 8 26 4 8 -4
9 -3 5 4 -8 13 -13 14 -33 5z"/>
<path d="M1786 1405 c-11 -8 -15 -15 -9 -15 7 0 15 5 18 10 4 6 11 7 17 4 7
-4 8 -2 4 4 -9 14 -7 15 -30 -3z"/>
<path d="M1914 1400 c2 -16 20 -14 24 2 3 10 2 10 -6 -1 -7 -9 -11 -10 -15 -2
-4 7 -5 8 -3 1z"/>
<path d="M1840 1380 c-9 -6 -10 -10 -3 -10 6 0 15 5 18 10 8 12 4 12 -15 0z"/>
<path d="M2073 1375 c0 -8 4 -12 9 -9 4 3 8 9 8 15 0 5 -4 9 -8 9 -5 0 -9 -7
-9 -15z"/>
<path d="M3851 1356 c-9 -11 -9 -16 0 -22 7 -4 9 -3 5 4 -3 5 0 12 6 15 7 2
10 7 7 11 -3 4 -12 0 -18 -8z"/>
<path d="M1182 1333 c-6 -2 -9 -10 -5 -16 4 -6 0 -8 -9 -5 -8 4 -15 0 -15 -7
0 -10 5 -11 19 -4 10 5 18 14 18 20 0 6 4 8 9 4 5 -3 12 -1 16 5 6 10 -11 12
-33 3z"/>
<path d="M1331 1296 c-15 -9 -20 -16 -12 -20 6 -4 11 -2 11 4 0 7 7 10 15 7 8
-4 17 -2 20 3 10 15 -10 19 -34 6z"/>
<path d="M2290 1280 c0 -5 5 -10 11 -10 5 0 7 5 4 10 -3 6 -8 10 -11 10 -2 0
-4 -4 -4 -10z"/>
<path d="M1226 1271 c-9 -14 4 -39 19 -37 23 3 29 15 15 31 -14 17 -26 19 -34
6z m27 -15 c4 -10 1 -13 -8 -9 -8 3 -12 9 -9 14 7 12 11 11 17 -5z"/>
<path d="M3730 1260 c0 -5 5 -10 11 -10 5 0 7 5 4 10 -3 6 -8 10 -11 10 -2 0
-4 -4 -4 -10z"/>
<path d="M2377 1235 c-8 -19 12 -30 26 -16 9 9 7 11 -8 6 -20 -7 -20 -6 -1 9
16 13 17 16 4 16 -9 0 -18 -7 -21 -15z"/>
<path d="M3430 1158 c0 -4 4 -8 9 -8 6 0 12 4 15 8 3 5 -1 9 -9 9 -8 0 -15 -4
-15 -9z"/>
<path d="M3036 1125 c-3 -8 0 -15 7 -15 8 0 7 -4 -3 -11 -12 -8 -12 -10 -1 -7
8 2 15 14 16 26 2 25 -10 29 -19 7z"/>
<path d="M3406 1127 c-16 -12 -16 -13 2 -13 10 0 19 6 19 13 0 7 -1 13 -2 13
-1 0 -9 -6 -19 -13z"/>
<path d="M2993 1115 c0 -8 4 -12 9 -9 5 3 6 10 3 15 -9 13 -12 11 -12 -6z"/>
<path d="M3366 1117 c3 -10 9 -15 12 -12 3 3 0 11 -7 18 -10 9 -11 8 -5 -6z"/>
<path d="M2837 1090 c7 -8 20 -15 29 -16 9 -1 13 1 9 4 -4 4 -10 7 -13 7 -4 0
-14 4 -22 9 -12 7 -13 6 -3 -4z"/>
<path d="M3060 1074 c0 -8 5 -12 10 -9 6 4 8 11 5 16 -9 14 -15 11 -15 -7z"/>
<path d="M3035 1060 c-3 -5 -1 -10 4 -10 6 0 11 5 11 10 0 6 -2 10 -4 10 -3 0
-8 -4 -11 -10z"/>
<path d="M2629 1038 c-6 -15 -19 -23 -37 -24 l-27 -1 29 12 c18 7 24 15 17 19
-6 4 -18 0 -27 -8 -9 -9 -20 -14 -25 -11 -15 10 -10 -12 6 -25 11 -10 18 -10
29 -1 11 9 15 9 19 -1 4 -10 6 -10 6 1 1 11 4 11 16 1 17 -14 20 1 4 17 -9 9
-4 11 20 8 34 -4 34 7 0 25 -16 9 -21 7 -30 -12z"/>
<path d="M2740 1045 c0 -8 9 -19 21 -25 20 -11 20 -11 4 14 -20 30 -25 32 -25
11z"/>
<path d="M2658 1011 c23 -14 -8 -27 -60 -26 -27 1 -48 -2 -48 -7 0 -4 4 -7 9
-5 5 1 17 -7 25 -18 15 -19 17 -19 30 -2 7 9 16 17 19 17 4 0 4 -8 1 -17 -5
-15 -3 -15 10 1 9 11 16 23 16 28 0 4 7 8 15 8 20 0 19 16 -1 24 -22 9 -31 7
-16 -3z m-48 -51 c0 -5 -2 -10 -4 -10 -3 0 -8 5 -11 10 -3 6 -1 10 4 10 6 0
11 -4 11 -10z"/>
<path d="M2430 1001 c0 -6 6 -11 13 -11 8 0 8 -3 1 -8 -13 -9 -27 -45 -15 -37
5 3 12 1 16 -5 3 -5 0 -10 -9 -10 -22 0 -15 -63 8 -66 12 -2 14 1 7 9 -6 8 -3
19 9 35 11 13 21 18 25 12 3 -5 11 -10 17 -10 6 0 6 6 -2 15 -7 9 -19 14 -27
11 -18 -7 -16 -3 9 18 18 15 20 16 15 2 -7 -17 1 -20 21 -7 10 6 10 10 -3 21
-12 10 -18 10 -31 -1 -30 -25 -59 -18 -34 7 8 8 6 15 -5 24 -10 8 -15 9 -15 1z
m19 -97 c-14 -13 -16 -13 -16 0 0 8 4 13 9 10 4 -3 8 0 8 7 0 7 3 9 7 5 4 -3
0 -13 -8 -22z"/>
<path d="M3350 991 c-19 -22 -23 -41 -10 -41 6 0 10 7 10 16 0 8 4 13 8 10 4
-2 9 4 9 15 2 22 2 22 -17 0z"/>
<path d="M3050 986 c0 -2 7 -7 16 -10 8 -3 12 -2 9 4 -6 10 -25 14 -25 6z"/>
<path d="M2660 960 c-12 -23 -5 -43 13 -37 13 4 18 57 5 57 -4 0 -12 -9 -18
-20z"/>
<path d="M2835 971 c-3 -5 -2 -12 3 -15 5 -3 9 1 9 9 0 17 -3 19 -12 6z"/>
<path d="M2757 963 c-4 -6 0 -16 8 -23 8 -7 13 -15 11 -19 -2 -3 2 -12 10 -18
8 -8 15 -9 19 -3 3 6 1 10 -5 10 -6 0 -9 4 -5 9 3 6 -1 13 -8 18 -8 4 -16 15
-19 23 -3 9 -7 10 -11 3z"/>
<path d="M2395 900 c-3 -5 -1 -10 4 -10 6 0 11 5 11 10 0 6 -2 10 -4 10 -3 0
-8 -4 -11 -10z"/>
<path d="M2874 826 c0 -14 4 -22 8 -20 4 3 8 -3 8 -12 0 -10 3 -15 6 -11 4 3
3 14 -1 24 -5 10 -7 24 -6 31 1 6 -2 12 -7 12 -4 0 -8 -11 -8 -24z"/>
<path d="M2350 783 c0 -6 8 -17 18 -24 16 -13 16 -13 2 6 -8 11 -16 22 -17 24
-2 2 -3 0 -3 -6z"/>
<path d="M3015 560 c3 -5 8 -10 11 -10 2 0 4 5 4 10 0 6 -5 10 -11 10 -5 0 -7
-4 -4 -10z"/>
<path d="M3160 476 c0 -2 7 -7 16 -10 8 -3 12 -2 9 4 -6 10 -25 14 -25 6z"/>
<path d="M2015 440 c-3 -5 -1 -10 4 -10 6 0 11 5 11 10 0 6 -2 10 -4 10 -3 0
-8 -4 -11 -10z"/>
<path d="M1820 400 c0 -5 5 -10 11 -10 5 0 7 5 4 10 -3 6 -8 10 -11 10 -2 0
-4 -4 -4 -10z"/>
<path d="M1870 394 c0 -8 5 -12 10 -9 6 4 8 11 5 16 -9 14 -15 11 -15 -7z"/>
<path d="M3345 400 c-3 -5 -1 -11 4 -14 11 -7 41 3 41 13 0 10 -39 11 -45 1z"/>
<path d="M1750 260 c0 -5 3 -9 8 -9 4 1 14 1 22 0 13 -1 13 -2 0 -11 -9 -6
-10 -10 -3 -10 21 0 24 19 4 29 -25 14 -31 14 -31 1z"/>
<path d="M2025 250 c-4 -6 -11 -8 -16 -5 -5 4 -9 2 -9 -4 0 -5 12 -9 28 -9 43
1 54 -1 48 -10 -2 -4 4 -8 15 -8 25 0 25 1 -15 25 -38 24 -42 25 -51 11z"/>
<path d="M2860 254 c0 -2 9 -8 20 -14 15 -8 18 -8 14 3 -4 11 -34 21 -34 11z"/>
<path d="M2239 239 c-6 -4 1 -6 15 -6 15 0 28 2 30 6 3 4 -4 7 -15 7 -11 0
-25 -3 -30 -7z"/>
<path d="M2330 241 c0 -6 5 -12 10 -12 20 -3 25 -4 40 -14 13 -8 13 -7 1 8 -8
10 -16 15 -19 12 -3 -3 -11 0 -19 6 -9 9 -13 8 -13 0z"/>
<path d="M2526 237 c3 -10 9 -15 12 -12 3 3 0 11 -7 18 -10 9 -11 8 -5 -6z"/>
<path d="M2579 240 c-6 -4 1 -7 15 -7 14 0 26 3 26 7 0 3 -7 7 -15 7 -8 0 -19
-4 -26 -7z"/>
<path d="M2660 240 c0 -5 5 -10 11 -10 5 0 7 -5 3 -12 -4 -7 -3 -8 5 -4 9 6 9
11 0 22 -14 17 -19 18 -19 4z"/>
<path d="M2917 235 c-4 -8 -3 -16 1 -19 4 -3 9 4 9 15 2 23 -3 25 -10 4z"/>
<path d="M2635 231 c-3 -5 -2 -12 3 -15 5 -3 9 1 9 9 0 17 -3 19 -12 6z"/>
<path d="M2735 220 c3 -5 8 -10 11 -10 2 0 4 5 4 10 0 6 -5 10 -11 10 -5 0 -7
-4 -4 -10z"/>
<path d="M3038 223 c7 -3 16 -2 19 1 4 3 -2 6 -13 5 -11 0 -14 -3 -6 -6z"/>
</g>
</svg>
